%TF.GenerationSoftware,KiCad,Pcbnew,7.0.10*%
%TF.CreationDate,2024-02-03T15:37:23+02:00*%
%TF.ProjectId,Liubomir_Stanev_PCB,4c697562-6f6d-4697-925f-5374616e6576,rev?*%
%TF.SameCoordinates,Original*%
%TF.FileFunction,AssemblyDrawing,Top*%
%FSLAX46Y46*%
G04 Gerber Fmt 4.6, Leading zero omitted, Abs format (unit mm)*
G04 Created by KiCad (PCBNEW 7.0.10) date 2024-02-03 15:37:23*
%MOMM*%
%LPD*%
G01*
G04 APERTURE LIST*
%ADD10C,0.150000*%
%ADD11C,0.100000*%
%ADD12C,0.127000*%
G04 APERTURE END LIST*
D10*
X141238095Y-106454819D02*
X141238095Y-105454819D01*
X141238095Y-105454819D02*
X141476190Y-105454819D01*
X141476190Y-105454819D02*
X141619047Y-105502438D01*
X141619047Y-105502438D02*
X141714285Y-105597676D01*
X141714285Y-105597676D02*
X141761904Y-105692914D01*
X141761904Y-105692914D02*
X141809523Y-105883390D01*
X141809523Y-105883390D02*
X141809523Y-106026247D01*
X141809523Y-106026247D02*
X141761904Y-106216723D01*
X141761904Y-106216723D02*
X141714285Y-106311961D01*
X141714285Y-106311961D02*
X141619047Y-106407200D01*
X141619047Y-106407200D02*
X141476190Y-106454819D01*
X141476190Y-106454819D02*
X141238095Y-106454819D01*
X142190476Y-106407200D02*
X142333333Y-106454819D01*
X142333333Y-106454819D02*
X142571428Y-106454819D01*
X142571428Y-106454819D02*
X142666666Y-106407200D01*
X142666666Y-106407200D02*
X142714285Y-106359580D01*
X142714285Y-106359580D02*
X142761904Y-106264342D01*
X142761904Y-106264342D02*
X142761904Y-106169104D01*
X142761904Y-106169104D02*
X142714285Y-106073866D01*
X142714285Y-106073866D02*
X142666666Y-106026247D01*
X142666666Y-106026247D02*
X142571428Y-105978628D01*
X142571428Y-105978628D02*
X142380952Y-105931009D01*
X142380952Y-105931009D02*
X142285714Y-105883390D01*
X142285714Y-105883390D02*
X142238095Y-105835771D01*
X142238095Y-105835771D02*
X142190476Y-105740533D01*
X142190476Y-105740533D02*
X142190476Y-105645295D01*
X142190476Y-105645295D02*
X142238095Y-105550057D01*
X142238095Y-105550057D02*
X142285714Y-105502438D01*
X142285714Y-105502438D02*
X142380952Y-105454819D01*
X142380952Y-105454819D02*
X142619047Y-105454819D01*
X142619047Y-105454819D02*
X142761904Y-105502438D01*
X143714285Y-106454819D02*
X143142857Y-106454819D01*
X143428571Y-106454819D02*
X143428571Y-105454819D01*
X143428571Y-105454819D02*
X143333333Y-105597676D01*
X143333333Y-105597676D02*
X143238095Y-105692914D01*
X143238095Y-105692914D02*
X143142857Y-105740533D01*
X144285714Y-105883390D02*
X144190476Y-105835771D01*
X144190476Y-105835771D02*
X144142857Y-105788152D01*
X144142857Y-105788152D02*
X144095238Y-105692914D01*
X144095238Y-105692914D02*
X144095238Y-105645295D01*
X144095238Y-105645295D02*
X144142857Y-105550057D01*
X144142857Y-105550057D02*
X144190476Y-105502438D01*
X144190476Y-105502438D02*
X144285714Y-105454819D01*
X144285714Y-105454819D02*
X144476190Y-105454819D01*
X144476190Y-105454819D02*
X144571428Y-105502438D01*
X144571428Y-105502438D02*
X144619047Y-105550057D01*
X144619047Y-105550057D02*
X144666666Y-105645295D01*
X144666666Y-105645295D02*
X144666666Y-105692914D01*
X144666666Y-105692914D02*
X144619047Y-105788152D01*
X144619047Y-105788152D02*
X144571428Y-105835771D01*
X144571428Y-105835771D02*
X144476190Y-105883390D01*
X144476190Y-105883390D02*
X144285714Y-105883390D01*
X144285714Y-105883390D02*
X144190476Y-105931009D01*
X144190476Y-105931009D02*
X144142857Y-105978628D01*
X144142857Y-105978628D02*
X144095238Y-106073866D01*
X144095238Y-106073866D02*
X144095238Y-106264342D01*
X144095238Y-106264342D02*
X144142857Y-106359580D01*
X144142857Y-106359580D02*
X144190476Y-106407200D01*
X144190476Y-106407200D02*
X144285714Y-106454819D01*
X144285714Y-106454819D02*
X144476190Y-106454819D01*
X144476190Y-106454819D02*
X144571428Y-106407200D01*
X144571428Y-106407200D02*
X144619047Y-106359580D01*
X144619047Y-106359580D02*
X144666666Y-106264342D01*
X144666666Y-106264342D02*
X144666666Y-106073866D01*
X144666666Y-106073866D02*
X144619047Y-105978628D01*
X144619047Y-105978628D02*
X144571428Y-105931009D01*
X144571428Y-105931009D02*
X144476190Y-105883390D01*
X145428571Y-105931009D02*
X145571428Y-105978628D01*
X145571428Y-105978628D02*
X145619047Y-106026247D01*
X145619047Y-106026247D02*
X145666666Y-106121485D01*
X145666666Y-106121485D02*
X145666666Y-106264342D01*
X145666666Y-106264342D02*
X145619047Y-106359580D01*
X145619047Y-106359580D02*
X145571428Y-106407200D01*
X145571428Y-106407200D02*
X145476190Y-106454819D01*
X145476190Y-106454819D02*
X145095238Y-106454819D01*
X145095238Y-106454819D02*
X145095238Y-105454819D01*
X145095238Y-105454819D02*
X145428571Y-105454819D01*
X145428571Y-105454819D02*
X145523809Y-105502438D01*
X145523809Y-105502438D02*
X145571428Y-105550057D01*
X145571428Y-105550057D02*
X145619047Y-105645295D01*
X145619047Y-105645295D02*
X145619047Y-105740533D01*
X145619047Y-105740533D02*
X145571428Y-105835771D01*
X145571428Y-105835771D02*
X145523809Y-105883390D01*
X145523809Y-105883390D02*
X145428571Y-105931009D01*
X145428571Y-105931009D02*
X145095238Y-105931009D01*
X146047619Y-105550057D02*
X146095238Y-105502438D01*
X146095238Y-105502438D02*
X146190476Y-105454819D01*
X146190476Y-105454819D02*
X146428571Y-105454819D01*
X146428571Y-105454819D02*
X146523809Y-105502438D01*
X146523809Y-105502438D02*
X146571428Y-105550057D01*
X146571428Y-105550057D02*
X146619047Y-105645295D01*
X146619047Y-105645295D02*
X146619047Y-105740533D01*
X146619047Y-105740533D02*
X146571428Y-105883390D01*
X146571428Y-105883390D02*
X146000000Y-106454819D01*
X146000000Y-106454819D02*
X146619047Y-106454819D01*
X147238095Y-105454819D02*
X147333333Y-105454819D01*
X147333333Y-105454819D02*
X147428571Y-105502438D01*
X147428571Y-105502438D02*
X147476190Y-105550057D01*
X147476190Y-105550057D02*
X147523809Y-105645295D01*
X147523809Y-105645295D02*
X147571428Y-105835771D01*
X147571428Y-105835771D02*
X147571428Y-106073866D01*
X147571428Y-106073866D02*
X147523809Y-106264342D01*
X147523809Y-106264342D02*
X147476190Y-106359580D01*
X147476190Y-106359580D02*
X147428571Y-106407200D01*
X147428571Y-106407200D02*
X147333333Y-106454819D01*
X147333333Y-106454819D02*
X147238095Y-106454819D01*
X147238095Y-106454819D02*
X147142857Y-106407200D01*
X147142857Y-106407200D02*
X147095238Y-106359580D01*
X147095238Y-106359580D02*
X147047619Y-106264342D01*
X147047619Y-106264342D02*
X147000000Y-106073866D01*
X147000000Y-106073866D02*
X147000000Y-105835771D01*
X147000000Y-105835771D02*
X147047619Y-105645295D01*
X147047619Y-105645295D02*
X147095238Y-105550057D01*
X147095238Y-105550057D02*
X147142857Y-105502438D01*
X147142857Y-105502438D02*
X147238095Y-105454819D01*
X148000000Y-106073866D02*
X148761905Y-106073866D01*
X149142857Y-105788152D02*
X149333333Y-106454819D01*
X149333333Y-106454819D02*
X149523809Y-105978628D01*
X149523809Y-105978628D02*
X149714285Y-106454819D01*
X149714285Y-106454819D02*
X149904761Y-105788152D01*
X150714285Y-106454819D02*
X150714285Y-105931009D01*
X150714285Y-105931009D02*
X150666666Y-105835771D01*
X150666666Y-105835771D02*
X150571428Y-105788152D01*
X150571428Y-105788152D02*
X150380952Y-105788152D01*
X150380952Y-105788152D02*
X150285714Y-105835771D01*
X150714285Y-106407200D02*
X150619047Y-106454819D01*
X150619047Y-106454819D02*
X150380952Y-106454819D01*
X150380952Y-106454819D02*
X150285714Y-106407200D01*
X150285714Y-106407200D02*
X150238095Y-106311961D01*
X150238095Y-106311961D02*
X150238095Y-106216723D01*
X150238095Y-106216723D02*
X150285714Y-106121485D01*
X150285714Y-106121485D02*
X150380952Y-106073866D01*
X150380952Y-106073866D02*
X150619047Y-106073866D01*
X150619047Y-106073866D02*
X150714285Y-106026247D01*
X151047619Y-105788152D02*
X151428571Y-105788152D01*
X151190476Y-105454819D02*
X151190476Y-106311961D01*
X151190476Y-106311961D02*
X151238095Y-106407200D01*
X151238095Y-106407200D02*
X151333333Y-106454819D01*
X151333333Y-106454819D02*
X151428571Y-106454819D01*
X152142857Y-106407200D02*
X152047619Y-106454819D01*
X152047619Y-106454819D02*
X151857143Y-106454819D01*
X151857143Y-106454819D02*
X151761905Y-106407200D01*
X151761905Y-106407200D02*
X151714286Y-106311961D01*
X151714286Y-106311961D02*
X151714286Y-105931009D01*
X151714286Y-105931009D02*
X151761905Y-105835771D01*
X151761905Y-105835771D02*
X151857143Y-105788152D01*
X151857143Y-105788152D02*
X152047619Y-105788152D01*
X152047619Y-105788152D02*
X152142857Y-105835771D01*
X152142857Y-105835771D02*
X152190476Y-105931009D01*
X152190476Y-105931009D02*
X152190476Y-106026247D01*
X152190476Y-106026247D02*
X151714286Y-106121485D01*
X152619048Y-106454819D02*
X152619048Y-105788152D01*
X152619048Y-105978628D02*
X152666667Y-105883390D01*
X152666667Y-105883390D02*
X152714286Y-105835771D01*
X152714286Y-105835771D02*
X152809524Y-105788152D01*
X152809524Y-105788152D02*
X152904762Y-105788152D01*
X152238095Y-101454819D02*
X152238095Y-102264342D01*
X152238095Y-102264342D02*
X152285714Y-102359580D01*
X152285714Y-102359580D02*
X152333333Y-102407200D01*
X152333333Y-102407200D02*
X152428571Y-102454819D01*
X152428571Y-102454819D02*
X152619047Y-102454819D01*
X152619047Y-102454819D02*
X152714285Y-102407200D01*
X152714285Y-102407200D02*
X152761904Y-102359580D01*
X152761904Y-102359580D02*
X152809523Y-102264342D01*
X152809523Y-102264342D02*
X152809523Y-101454819D01*
X153761904Y-101454819D02*
X153285714Y-101454819D01*
X153285714Y-101454819D02*
X153238095Y-101931009D01*
X153238095Y-101931009D02*
X153285714Y-101883390D01*
X153285714Y-101883390D02*
X153380952Y-101835771D01*
X153380952Y-101835771D02*
X153619047Y-101835771D01*
X153619047Y-101835771D02*
X153714285Y-101883390D01*
X153714285Y-101883390D02*
X153761904Y-101931009D01*
X153761904Y-101931009D02*
X153809523Y-102026247D01*
X153809523Y-102026247D02*
X153809523Y-102264342D01*
X153809523Y-102264342D02*
X153761904Y-102359580D01*
X153761904Y-102359580D02*
X153714285Y-102407200D01*
X153714285Y-102407200D02*
X153619047Y-102454819D01*
X153619047Y-102454819D02*
X153380952Y-102454819D01*
X153380952Y-102454819D02*
X153285714Y-102407200D01*
X153285714Y-102407200D02*
X153238095Y-102359580D01*
X69333333Y-80954819D02*
X69000000Y-80478628D01*
X68761905Y-80954819D02*
X68761905Y-79954819D01*
X68761905Y-79954819D02*
X69142857Y-79954819D01*
X69142857Y-79954819D02*
X69238095Y-80002438D01*
X69238095Y-80002438D02*
X69285714Y-80050057D01*
X69285714Y-80050057D02*
X69333333Y-80145295D01*
X69333333Y-80145295D02*
X69333333Y-80288152D01*
X69333333Y-80288152D02*
X69285714Y-80383390D01*
X69285714Y-80383390D02*
X69238095Y-80431009D01*
X69238095Y-80431009D02*
X69142857Y-80478628D01*
X69142857Y-80478628D02*
X68761905Y-80478628D01*
X70285714Y-80954819D02*
X69714286Y-80954819D01*
X70000000Y-80954819D02*
X70000000Y-79954819D01*
X70000000Y-79954819D02*
X69904762Y-80097676D01*
X69904762Y-80097676D02*
X69809524Y-80192914D01*
X69809524Y-80192914D02*
X69714286Y-80240533D01*
X105666666Y-69454819D02*
X105666666Y-70169104D01*
X105666666Y-70169104D02*
X105619047Y-70311961D01*
X105619047Y-70311961D02*
X105523809Y-70407200D01*
X105523809Y-70407200D02*
X105380952Y-70454819D01*
X105380952Y-70454819D02*
X105285714Y-70454819D01*
X106571428Y-69788152D02*
X106571428Y-70454819D01*
X106333333Y-69407200D02*
X106095238Y-70121485D01*
X106095238Y-70121485D02*
X106714285Y-70121485D01*
X75904762Y-106454819D02*
X76476190Y-106454819D01*
X76190476Y-107454819D02*
X76190476Y-106454819D01*
X76809524Y-106931009D02*
X77142857Y-106931009D01*
X77285714Y-107454819D02*
X76809524Y-107454819D01*
X76809524Y-107454819D02*
X76809524Y-106454819D01*
X76809524Y-106454819D02*
X77285714Y-106454819D01*
X77714286Y-107454819D02*
X77714286Y-106454819D01*
X77714286Y-106454819D02*
X78047619Y-107169104D01*
X78047619Y-107169104D02*
X78380952Y-106454819D01*
X78380952Y-106454819D02*
X78380952Y-107454819D01*
X78714286Y-106454819D02*
X79285714Y-106454819D01*
X79000000Y-107454819D02*
X79000000Y-106454819D01*
X80047619Y-106454819D02*
X79857143Y-106454819D01*
X79857143Y-106454819D02*
X79761905Y-106502438D01*
X79761905Y-106502438D02*
X79714286Y-106550057D01*
X79714286Y-106550057D02*
X79619048Y-106692914D01*
X79619048Y-106692914D02*
X79571429Y-106883390D01*
X79571429Y-106883390D02*
X79571429Y-107264342D01*
X79571429Y-107264342D02*
X79619048Y-107359580D01*
X79619048Y-107359580D02*
X79666667Y-107407200D01*
X79666667Y-107407200D02*
X79761905Y-107454819D01*
X79761905Y-107454819D02*
X79952381Y-107454819D01*
X79952381Y-107454819D02*
X80047619Y-107407200D01*
X80047619Y-107407200D02*
X80095238Y-107359580D01*
X80095238Y-107359580D02*
X80142857Y-107264342D01*
X80142857Y-107264342D02*
X80142857Y-107026247D01*
X80142857Y-107026247D02*
X80095238Y-106931009D01*
X80095238Y-106931009D02*
X80047619Y-106883390D01*
X80047619Y-106883390D02*
X79952381Y-106835771D01*
X79952381Y-106835771D02*
X79761905Y-106835771D01*
X79761905Y-106835771D02*
X79666667Y-106883390D01*
X79666667Y-106883390D02*
X79619048Y-106931009D01*
X79619048Y-106931009D02*
X79571429Y-107026247D01*
X80761905Y-106454819D02*
X80857143Y-106454819D01*
X80857143Y-106454819D02*
X80952381Y-106502438D01*
X80952381Y-106502438D02*
X81000000Y-106550057D01*
X81000000Y-106550057D02*
X81047619Y-106645295D01*
X81047619Y-106645295D02*
X81095238Y-106835771D01*
X81095238Y-106835771D02*
X81095238Y-107073866D01*
X81095238Y-107073866D02*
X81047619Y-107264342D01*
X81047619Y-107264342D02*
X81000000Y-107359580D01*
X81000000Y-107359580D02*
X80952381Y-107407200D01*
X80952381Y-107407200D02*
X80857143Y-107454819D01*
X80857143Y-107454819D02*
X80761905Y-107454819D01*
X80761905Y-107454819D02*
X80666667Y-107407200D01*
X80666667Y-107407200D02*
X80619048Y-107359580D01*
X80619048Y-107359580D02*
X80571429Y-107264342D01*
X80571429Y-107264342D02*
X80523810Y-107073866D01*
X80523810Y-107073866D02*
X80523810Y-106835771D01*
X80523810Y-106835771D02*
X80571429Y-106645295D01*
X80571429Y-106645295D02*
X80619048Y-106550057D01*
X80619048Y-106550057D02*
X80666667Y-106502438D01*
X80666667Y-106502438D02*
X80761905Y-106454819D01*
X81714286Y-106454819D02*
X81809524Y-106454819D01*
X81809524Y-106454819D02*
X81904762Y-106502438D01*
X81904762Y-106502438D02*
X81952381Y-106550057D01*
X81952381Y-106550057D02*
X82000000Y-106645295D01*
X82000000Y-106645295D02*
X82047619Y-106835771D01*
X82047619Y-106835771D02*
X82047619Y-107073866D01*
X82047619Y-107073866D02*
X82000000Y-107264342D01*
X82000000Y-107264342D02*
X81952381Y-107359580D01*
X81952381Y-107359580D02*
X81904762Y-107407200D01*
X81904762Y-107407200D02*
X81809524Y-107454819D01*
X81809524Y-107454819D02*
X81714286Y-107454819D01*
X81714286Y-107454819D02*
X81619048Y-107407200D01*
X81619048Y-107407200D02*
X81571429Y-107359580D01*
X81571429Y-107359580D02*
X81523810Y-107264342D01*
X81523810Y-107264342D02*
X81476191Y-107073866D01*
X81476191Y-107073866D02*
X81476191Y-106835771D01*
X81476191Y-106835771D02*
X81523810Y-106645295D01*
X81523810Y-106645295D02*
X81571429Y-106550057D01*
X81571429Y-106550057D02*
X81619048Y-106502438D01*
X81619048Y-106502438D02*
X81714286Y-106454819D01*
X82666667Y-106454819D02*
X82761905Y-106454819D01*
X82761905Y-106454819D02*
X82857143Y-106502438D01*
X82857143Y-106502438D02*
X82904762Y-106550057D01*
X82904762Y-106550057D02*
X82952381Y-106645295D01*
X82952381Y-106645295D02*
X83000000Y-106835771D01*
X83000000Y-106835771D02*
X83000000Y-107073866D01*
X83000000Y-107073866D02*
X82952381Y-107264342D01*
X82952381Y-107264342D02*
X82904762Y-107359580D01*
X82904762Y-107359580D02*
X82857143Y-107407200D01*
X82857143Y-107407200D02*
X82761905Y-107454819D01*
X82761905Y-107454819D02*
X82666667Y-107454819D01*
X82666667Y-107454819D02*
X82571429Y-107407200D01*
X82571429Y-107407200D02*
X82523810Y-107359580D01*
X82523810Y-107359580D02*
X82476191Y-107264342D01*
X82476191Y-107264342D02*
X82428572Y-107073866D01*
X82428572Y-107073866D02*
X82428572Y-106835771D01*
X82428572Y-106835771D02*
X82476191Y-106645295D01*
X82476191Y-106645295D02*
X82523810Y-106550057D01*
X82523810Y-106550057D02*
X82571429Y-106502438D01*
X82571429Y-106502438D02*
X82666667Y-106454819D01*
X83738095Y-102454819D02*
X83738095Y-103264342D01*
X83738095Y-103264342D02*
X83785714Y-103359580D01*
X83785714Y-103359580D02*
X83833333Y-103407200D01*
X83833333Y-103407200D02*
X83928571Y-103454819D01*
X83928571Y-103454819D02*
X84119047Y-103454819D01*
X84119047Y-103454819D02*
X84214285Y-103407200D01*
X84214285Y-103407200D02*
X84261904Y-103359580D01*
X84261904Y-103359580D02*
X84309523Y-103264342D01*
X84309523Y-103264342D02*
X84309523Y-102454819D01*
X84738095Y-102550057D02*
X84785714Y-102502438D01*
X84785714Y-102502438D02*
X84880952Y-102454819D01*
X84880952Y-102454819D02*
X85119047Y-102454819D01*
X85119047Y-102454819D02*
X85214285Y-102502438D01*
X85214285Y-102502438D02*
X85261904Y-102550057D01*
X85261904Y-102550057D02*
X85309523Y-102645295D01*
X85309523Y-102645295D02*
X85309523Y-102740533D01*
X85309523Y-102740533D02*
X85261904Y-102883390D01*
X85261904Y-102883390D02*
X84690476Y-103454819D01*
X84690476Y-103454819D02*
X85309523Y-103454819D01*
X166690475Y-50454819D02*
X166357142Y-49978628D01*
X166119047Y-50454819D02*
X166119047Y-49454819D01*
X166119047Y-49454819D02*
X166499999Y-49454819D01*
X166499999Y-49454819D02*
X166595237Y-49502438D01*
X166595237Y-49502438D02*
X166642856Y-49550057D01*
X166642856Y-49550057D02*
X166690475Y-49645295D01*
X166690475Y-49645295D02*
X166690475Y-49788152D01*
X166690475Y-49788152D02*
X166642856Y-49883390D01*
X166642856Y-49883390D02*
X166595237Y-49931009D01*
X166595237Y-49931009D02*
X166499999Y-49978628D01*
X166499999Y-49978628D02*
X166119047Y-49978628D01*
X167499999Y-50407200D02*
X167404761Y-50454819D01*
X167404761Y-50454819D02*
X167214285Y-50454819D01*
X167214285Y-50454819D02*
X167119047Y-50407200D01*
X167119047Y-50407200D02*
X167071428Y-50311961D01*
X167071428Y-50311961D02*
X167071428Y-49931009D01*
X167071428Y-49931009D02*
X167119047Y-49835771D01*
X167119047Y-49835771D02*
X167214285Y-49788152D01*
X167214285Y-49788152D02*
X167404761Y-49788152D01*
X167404761Y-49788152D02*
X167499999Y-49835771D01*
X167499999Y-49835771D02*
X167547618Y-49931009D01*
X167547618Y-49931009D02*
X167547618Y-50026247D01*
X167547618Y-50026247D02*
X167071428Y-50121485D01*
X168119047Y-50454819D02*
X168023809Y-50407200D01*
X168023809Y-50407200D02*
X167976190Y-50311961D01*
X167976190Y-50311961D02*
X167976190Y-49454819D01*
X168928571Y-50454819D02*
X168928571Y-49931009D01*
X168928571Y-49931009D02*
X168880952Y-49835771D01*
X168880952Y-49835771D02*
X168785714Y-49788152D01*
X168785714Y-49788152D02*
X168595238Y-49788152D01*
X168595238Y-49788152D02*
X168500000Y-49835771D01*
X168928571Y-50407200D02*
X168833333Y-50454819D01*
X168833333Y-50454819D02*
X168595238Y-50454819D01*
X168595238Y-50454819D02*
X168500000Y-50407200D01*
X168500000Y-50407200D02*
X168452381Y-50311961D01*
X168452381Y-50311961D02*
X168452381Y-50216723D01*
X168452381Y-50216723D02*
X168500000Y-50121485D01*
X168500000Y-50121485D02*
X168595238Y-50073866D01*
X168595238Y-50073866D02*
X168833333Y-50073866D01*
X168833333Y-50073866D02*
X168928571Y-50026247D01*
X169309524Y-49788152D02*
X169547619Y-50454819D01*
X169785714Y-49788152D02*
X169547619Y-50454819D01*
X169547619Y-50454819D02*
X169452381Y-50692914D01*
X169452381Y-50692914D02*
X169404762Y-50740533D01*
X169404762Y-50740533D02*
X169309524Y-50788152D01*
X170928572Y-50454819D02*
X170928572Y-49788152D01*
X170928572Y-49883390D02*
X170976191Y-49835771D01*
X170976191Y-49835771D02*
X171071429Y-49788152D01*
X171071429Y-49788152D02*
X171214286Y-49788152D01*
X171214286Y-49788152D02*
X171309524Y-49835771D01*
X171309524Y-49835771D02*
X171357143Y-49931009D01*
X171357143Y-49931009D02*
X171357143Y-50454819D01*
X171357143Y-49931009D02*
X171404762Y-49835771D01*
X171404762Y-49835771D02*
X171500000Y-49788152D01*
X171500000Y-49788152D02*
X171642857Y-49788152D01*
X171642857Y-49788152D02*
X171738096Y-49835771D01*
X171738096Y-49835771D02*
X171785715Y-49931009D01*
X171785715Y-49931009D02*
X171785715Y-50454819D01*
X172404762Y-50454819D02*
X172309524Y-50407200D01*
X172309524Y-50407200D02*
X172261905Y-50359580D01*
X172261905Y-50359580D02*
X172214286Y-50264342D01*
X172214286Y-50264342D02*
X172214286Y-49978628D01*
X172214286Y-49978628D02*
X172261905Y-49883390D01*
X172261905Y-49883390D02*
X172309524Y-49835771D01*
X172309524Y-49835771D02*
X172404762Y-49788152D01*
X172404762Y-49788152D02*
X172547619Y-49788152D01*
X172547619Y-49788152D02*
X172642857Y-49835771D01*
X172642857Y-49835771D02*
X172690476Y-49883390D01*
X172690476Y-49883390D02*
X172738095Y-49978628D01*
X172738095Y-49978628D02*
X172738095Y-50264342D01*
X172738095Y-50264342D02*
X172690476Y-50359580D01*
X172690476Y-50359580D02*
X172642857Y-50407200D01*
X172642857Y-50407200D02*
X172547619Y-50454819D01*
X172547619Y-50454819D02*
X172404762Y-50454819D01*
X173595238Y-50454819D02*
X173595238Y-49454819D01*
X173595238Y-50407200D02*
X173500000Y-50454819D01*
X173500000Y-50454819D02*
X173309524Y-50454819D01*
X173309524Y-50454819D02*
X173214286Y-50407200D01*
X173214286Y-50407200D02*
X173166667Y-50359580D01*
X173166667Y-50359580D02*
X173119048Y-50264342D01*
X173119048Y-50264342D02*
X173119048Y-49978628D01*
X173119048Y-49978628D02*
X173166667Y-49883390D01*
X173166667Y-49883390D02*
X173214286Y-49835771D01*
X173214286Y-49835771D02*
X173309524Y-49788152D01*
X173309524Y-49788152D02*
X173500000Y-49788152D01*
X173500000Y-49788152D02*
X173595238Y-49835771D01*
X174500000Y-49788152D02*
X174500000Y-50454819D01*
X174071429Y-49788152D02*
X174071429Y-50311961D01*
X174071429Y-50311961D02*
X174119048Y-50407200D01*
X174119048Y-50407200D02*
X174214286Y-50454819D01*
X174214286Y-50454819D02*
X174357143Y-50454819D01*
X174357143Y-50454819D02*
X174452381Y-50407200D01*
X174452381Y-50407200D02*
X174500000Y-50359580D01*
X175119048Y-50454819D02*
X175023810Y-50407200D01*
X175023810Y-50407200D02*
X174976191Y-50311961D01*
X174976191Y-50311961D02*
X174976191Y-49454819D01*
X175880953Y-50407200D02*
X175785715Y-50454819D01*
X175785715Y-50454819D02*
X175595239Y-50454819D01*
X175595239Y-50454819D02*
X175500001Y-50407200D01*
X175500001Y-50407200D02*
X175452382Y-50311961D01*
X175452382Y-50311961D02*
X175452382Y-49931009D01*
X175452382Y-49931009D02*
X175500001Y-49835771D01*
X175500001Y-49835771D02*
X175595239Y-49788152D01*
X175595239Y-49788152D02*
X175785715Y-49788152D01*
X175785715Y-49788152D02*
X175880953Y-49835771D01*
X175880953Y-49835771D02*
X175928572Y-49931009D01*
X175928572Y-49931009D02*
X175928572Y-50026247D01*
X175928572Y-50026247D02*
X175452382Y-50121485D01*
X172738095Y-44954819D02*
X172738095Y-45764342D01*
X172738095Y-45764342D02*
X172785714Y-45859580D01*
X172785714Y-45859580D02*
X172833333Y-45907200D01*
X172833333Y-45907200D02*
X172928571Y-45954819D01*
X172928571Y-45954819D02*
X173119047Y-45954819D01*
X173119047Y-45954819D02*
X173214285Y-45907200D01*
X173214285Y-45907200D02*
X173261904Y-45859580D01*
X173261904Y-45859580D02*
X173309523Y-45764342D01*
X173309523Y-45764342D02*
X173309523Y-44954819D01*
X173928571Y-45383390D02*
X173833333Y-45335771D01*
X173833333Y-45335771D02*
X173785714Y-45288152D01*
X173785714Y-45288152D02*
X173738095Y-45192914D01*
X173738095Y-45192914D02*
X173738095Y-45145295D01*
X173738095Y-45145295D02*
X173785714Y-45050057D01*
X173785714Y-45050057D02*
X173833333Y-45002438D01*
X173833333Y-45002438D02*
X173928571Y-44954819D01*
X173928571Y-44954819D02*
X174119047Y-44954819D01*
X174119047Y-44954819D02*
X174214285Y-45002438D01*
X174214285Y-45002438D02*
X174261904Y-45050057D01*
X174261904Y-45050057D02*
X174309523Y-45145295D01*
X174309523Y-45145295D02*
X174309523Y-45192914D01*
X174309523Y-45192914D02*
X174261904Y-45288152D01*
X174261904Y-45288152D02*
X174214285Y-45335771D01*
X174214285Y-45335771D02*
X174119047Y-45383390D01*
X174119047Y-45383390D02*
X173928571Y-45383390D01*
X173928571Y-45383390D02*
X173833333Y-45431009D01*
X173833333Y-45431009D02*
X173785714Y-45478628D01*
X173785714Y-45478628D02*
X173738095Y-45573866D01*
X173738095Y-45573866D02*
X173738095Y-45764342D01*
X173738095Y-45764342D02*
X173785714Y-45859580D01*
X173785714Y-45859580D02*
X173833333Y-45907200D01*
X173833333Y-45907200D02*
X173928571Y-45954819D01*
X173928571Y-45954819D02*
X174119047Y-45954819D01*
X174119047Y-45954819D02*
X174214285Y-45907200D01*
X174214285Y-45907200D02*
X174261904Y-45859580D01*
X174261904Y-45859580D02*
X174309523Y-45764342D01*
X174309523Y-45764342D02*
X174309523Y-45573866D01*
X174309523Y-45573866D02*
X174261904Y-45478628D01*
X174261904Y-45478628D02*
X174214285Y-45431009D01*
X174214285Y-45431009D02*
X174119047Y-45383390D01*
X105666666Y-80454819D02*
X105666666Y-81169104D01*
X105666666Y-81169104D02*
X105619047Y-81311961D01*
X105619047Y-81311961D02*
X105523809Y-81407200D01*
X105523809Y-81407200D02*
X105380952Y-81454819D01*
X105380952Y-81454819D02*
X105285714Y-81454819D01*
X106571428Y-80454819D02*
X106380952Y-80454819D01*
X106380952Y-80454819D02*
X106285714Y-80502438D01*
X106285714Y-80502438D02*
X106238095Y-80550057D01*
X106238095Y-80550057D02*
X106142857Y-80692914D01*
X106142857Y-80692914D02*
X106095238Y-80883390D01*
X106095238Y-80883390D02*
X106095238Y-81264342D01*
X106095238Y-81264342D02*
X106142857Y-81359580D01*
X106142857Y-81359580D02*
X106190476Y-81407200D01*
X106190476Y-81407200D02*
X106285714Y-81454819D01*
X106285714Y-81454819D02*
X106476190Y-81454819D01*
X106476190Y-81454819D02*
X106571428Y-81407200D01*
X106571428Y-81407200D02*
X106619047Y-81359580D01*
X106619047Y-81359580D02*
X106666666Y-81264342D01*
X106666666Y-81264342D02*
X106666666Y-81026247D01*
X106666666Y-81026247D02*
X106619047Y-80931009D01*
X106619047Y-80931009D02*
X106571428Y-80883390D01*
X106571428Y-80883390D02*
X106476190Y-80835771D01*
X106476190Y-80835771D02*
X106285714Y-80835771D01*
X106285714Y-80835771D02*
X106190476Y-80883390D01*
X106190476Y-80883390D02*
X106142857Y-80931009D01*
X106142857Y-80931009D02*
X106095238Y-81026247D01*
X134357143Y-108931009D02*
X134690476Y-108931009D01*
X134833333Y-109454819D02*
X134357143Y-109454819D01*
X134357143Y-109454819D02*
X134357143Y-108454819D01*
X134357143Y-108454819D02*
X134833333Y-108454819D01*
X135214286Y-109407200D02*
X135357143Y-109454819D01*
X135357143Y-109454819D02*
X135595238Y-109454819D01*
X135595238Y-109454819D02*
X135690476Y-109407200D01*
X135690476Y-109407200D02*
X135738095Y-109359580D01*
X135738095Y-109359580D02*
X135785714Y-109264342D01*
X135785714Y-109264342D02*
X135785714Y-109169104D01*
X135785714Y-109169104D02*
X135738095Y-109073866D01*
X135738095Y-109073866D02*
X135690476Y-109026247D01*
X135690476Y-109026247D02*
X135595238Y-108978628D01*
X135595238Y-108978628D02*
X135404762Y-108931009D01*
X135404762Y-108931009D02*
X135309524Y-108883390D01*
X135309524Y-108883390D02*
X135261905Y-108835771D01*
X135261905Y-108835771D02*
X135214286Y-108740533D01*
X135214286Y-108740533D02*
X135214286Y-108645295D01*
X135214286Y-108645295D02*
X135261905Y-108550057D01*
X135261905Y-108550057D02*
X135309524Y-108502438D01*
X135309524Y-108502438D02*
X135404762Y-108454819D01*
X135404762Y-108454819D02*
X135642857Y-108454819D01*
X135642857Y-108454819D02*
X135785714Y-108502438D01*
X136214286Y-109454819D02*
X136214286Y-108454819D01*
X136214286Y-108454819D02*
X136595238Y-108454819D01*
X136595238Y-108454819D02*
X136690476Y-108502438D01*
X136690476Y-108502438D02*
X136738095Y-108550057D01*
X136738095Y-108550057D02*
X136785714Y-108645295D01*
X136785714Y-108645295D02*
X136785714Y-108788152D01*
X136785714Y-108788152D02*
X136738095Y-108883390D01*
X136738095Y-108883390D02*
X136690476Y-108931009D01*
X136690476Y-108931009D02*
X136595238Y-108978628D01*
X136595238Y-108978628D02*
X136214286Y-108978628D01*
X137119048Y-108454819D02*
X137738095Y-108454819D01*
X137738095Y-108454819D02*
X137404762Y-108835771D01*
X137404762Y-108835771D02*
X137547619Y-108835771D01*
X137547619Y-108835771D02*
X137642857Y-108883390D01*
X137642857Y-108883390D02*
X137690476Y-108931009D01*
X137690476Y-108931009D02*
X137738095Y-109026247D01*
X137738095Y-109026247D02*
X137738095Y-109264342D01*
X137738095Y-109264342D02*
X137690476Y-109359580D01*
X137690476Y-109359580D02*
X137642857Y-109407200D01*
X137642857Y-109407200D02*
X137547619Y-109454819D01*
X137547619Y-109454819D02*
X137261905Y-109454819D01*
X137261905Y-109454819D02*
X137166667Y-109407200D01*
X137166667Y-109407200D02*
X137119048Y-109359580D01*
X138119048Y-108550057D02*
X138166667Y-108502438D01*
X138166667Y-108502438D02*
X138261905Y-108454819D01*
X138261905Y-108454819D02*
X138500000Y-108454819D01*
X138500000Y-108454819D02*
X138595238Y-108502438D01*
X138595238Y-108502438D02*
X138642857Y-108550057D01*
X138642857Y-108550057D02*
X138690476Y-108645295D01*
X138690476Y-108645295D02*
X138690476Y-108740533D01*
X138690476Y-108740533D02*
X138642857Y-108883390D01*
X138642857Y-108883390D02*
X138071429Y-109454819D01*
X138071429Y-109454819D02*
X138690476Y-109454819D01*
X105666666Y-93454819D02*
X105666666Y-94169104D01*
X105666666Y-94169104D02*
X105619047Y-94311961D01*
X105619047Y-94311961D02*
X105523809Y-94407200D01*
X105523809Y-94407200D02*
X105380952Y-94454819D01*
X105380952Y-94454819D02*
X105285714Y-94454819D01*
X106619047Y-93454819D02*
X106142857Y-93454819D01*
X106142857Y-93454819D02*
X106095238Y-93931009D01*
X106095238Y-93931009D02*
X106142857Y-93883390D01*
X106142857Y-93883390D02*
X106238095Y-93835771D01*
X106238095Y-93835771D02*
X106476190Y-93835771D01*
X106476190Y-93835771D02*
X106571428Y-93883390D01*
X106571428Y-93883390D02*
X106619047Y-93931009D01*
X106619047Y-93931009D02*
X106666666Y-94026247D01*
X106666666Y-94026247D02*
X106666666Y-94264342D01*
X106666666Y-94264342D02*
X106619047Y-94359580D01*
X106619047Y-94359580D02*
X106571428Y-94407200D01*
X106571428Y-94407200D02*
X106476190Y-94454819D01*
X106476190Y-94454819D02*
X106238095Y-94454819D01*
X106238095Y-94454819D02*
X106142857Y-94407200D01*
X106142857Y-94407200D02*
X106095238Y-94359580D01*
X147333333Y-92654819D02*
X147000000Y-92178628D01*
X146761905Y-92654819D02*
X146761905Y-91654819D01*
X146761905Y-91654819D02*
X147142857Y-91654819D01*
X147142857Y-91654819D02*
X147238095Y-91702438D01*
X147238095Y-91702438D02*
X147285714Y-91750057D01*
X147285714Y-91750057D02*
X147333333Y-91845295D01*
X147333333Y-91845295D02*
X147333333Y-91988152D01*
X147333333Y-91988152D02*
X147285714Y-92083390D01*
X147285714Y-92083390D02*
X147238095Y-92131009D01*
X147238095Y-92131009D02*
X147142857Y-92178628D01*
X147142857Y-92178628D02*
X146761905Y-92178628D01*
X147714286Y-91750057D02*
X147761905Y-91702438D01*
X147761905Y-91702438D02*
X147857143Y-91654819D01*
X147857143Y-91654819D02*
X148095238Y-91654819D01*
X148095238Y-91654819D02*
X148190476Y-91702438D01*
X148190476Y-91702438D02*
X148238095Y-91750057D01*
X148238095Y-91750057D02*
X148285714Y-91845295D01*
X148285714Y-91845295D02*
X148285714Y-91940533D01*
X148285714Y-91940533D02*
X148238095Y-92083390D01*
X148238095Y-92083390D02*
X147666667Y-92654819D01*
X147666667Y-92654819D02*
X148285714Y-92654819D01*
X153904760Y-105454819D02*
X154142855Y-106454819D01*
X154142855Y-106454819D02*
X154333331Y-105740533D01*
X154333331Y-105740533D02*
X154523807Y-106454819D01*
X154523807Y-106454819D02*
X154761903Y-105454819D01*
X155571426Y-106454819D02*
X155571426Y-105931009D01*
X155571426Y-105931009D02*
X155523807Y-105835771D01*
X155523807Y-105835771D02*
X155428569Y-105788152D01*
X155428569Y-105788152D02*
X155238093Y-105788152D01*
X155238093Y-105788152D02*
X155142855Y-105835771D01*
X155571426Y-106407200D02*
X155476188Y-106454819D01*
X155476188Y-106454819D02*
X155238093Y-106454819D01*
X155238093Y-106454819D02*
X155142855Y-106407200D01*
X155142855Y-106407200D02*
X155095236Y-106311961D01*
X155095236Y-106311961D02*
X155095236Y-106216723D01*
X155095236Y-106216723D02*
X155142855Y-106121485D01*
X155142855Y-106121485D02*
X155238093Y-106073866D01*
X155238093Y-106073866D02*
X155476188Y-106073866D01*
X155476188Y-106073866D02*
X155571426Y-106026247D01*
X155904760Y-105788152D02*
X156285712Y-105788152D01*
X156047617Y-105454819D02*
X156047617Y-106311961D01*
X156047617Y-106311961D02*
X156095236Y-106407200D01*
X156095236Y-106407200D02*
X156190474Y-106454819D01*
X156190474Y-106454819D02*
X156285712Y-106454819D01*
X156999998Y-106407200D02*
X156904760Y-106454819D01*
X156904760Y-106454819D02*
X156714284Y-106454819D01*
X156714284Y-106454819D02*
X156619046Y-106407200D01*
X156619046Y-106407200D02*
X156571427Y-106311961D01*
X156571427Y-106311961D02*
X156571427Y-105931009D01*
X156571427Y-105931009D02*
X156619046Y-105835771D01*
X156619046Y-105835771D02*
X156714284Y-105788152D01*
X156714284Y-105788152D02*
X156904760Y-105788152D01*
X156904760Y-105788152D02*
X156999998Y-105835771D01*
X156999998Y-105835771D02*
X157047617Y-105931009D01*
X157047617Y-105931009D02*
X157047617Y-106026247D01*
X157047617Y-106026247D02*
X156571427Y-106121485D01*
X157476189Y-106454819D02*
X157476189Y-105788152D01*
X157476189Y-105978628D02*
X157523808Y-105883390D01*
X157523808Y-105883390D02*
X157571427Y-105835771D01*
X157571427Y-105835771D02*
X157666665Y-105788152D01*
X157666665Y-105788152D02*
X157761903Y-105788152D01*
X159333332Y-106454819D02*
X158857142Y-106454819D01*
X158857142Y-106454819D02*
X158857142Y-105454819D01*
X160047618Y-106407200D02*
X159952380Y-106454819D01*
X159952380Y-106454819D02*
X159761904Y-106454819D01*
X159761904Y-106454819D02*
X159666666Y-106407200D01*
X159666666Y-106407200D02*
X159619047Y-106311961D01*
X159619047Y-106311961D02*
X159619047Y-105931009D01*
X159619047Y-105931009D02*
X159666666Y-105835771D01*
X159666666Y-105835771D02*
X159761904Y-105788152D01*
X159761904Y-105788152D02*
X159952380Y-105788152D01*
X159952380Y-105788152D02*
X160047618Y-105835771D01*
X160047618Y-105835771D02*
X160095237Y-105931009D01*
X160095237Y-105931009D02*
X160095237Y-106026247D01*
X160095237Y-106026247D02*
X159619047Y-106121485D01*
X160428571Y-105788152D02*
X160666666Y-106454819D01*
X160666666Y-106454819D02*
X160904761Y-105788152D01*
X161666666Y-106407200D02*
X161571428Y-106454819D01*
X161571428Y-106454819D02*
X161380952Y-106454819D01*
X161380952Y-106454819D02*
X161285714Y-106407200D01*
X161285714Y-106407200D02*
X161238095Y-106311961D01*
X161238095Y-106311961D02*
X161238095Y-105931009D01*
X161238095Y-105931009D02*
X161285714Y-105835771D01*
X161285714Y-105835771D02*
X161380952Y-105788152D01*
X161380952Y-105788152D02*
X161571428Y-105788152D01*
X161571428Y-105788152D02*
X161666666Y-105835771D01*
X161666666Y-105835771D02*
X161714285Y-105931009D01*
X161714285Y-105931009D02*
X161714285Y-106026247D01*
X161714285Y-106026247D02*
X161238095Y-106121485D01*
X162285714Y-106454819D02*
X162190476Y-106407200D01*
X162190476Y-106407200D02*
X162142857Y-106311961D01*
X162142857Y-106311961D02*
X162142857Y-105454819D01*
X163380953Y-106407200D02*
X163523810Y-106454819D01*
X163523810Y-106454819D02*
X163761905Y-106454819D01*
X163761905Y-106454819D02*
X163857143Y-106407200D01*
X163857143Y-106407200D02*
X163904762Y-106359580D01*
X163904762Y-106359580D02*
X163952381Y-106264342D01*
X163952381Y-106264342D02*
X163952381Y-106169104D01*
X163952381Y-106169104D02*
X163904762Y-106073866D01*
X163904762Y-106073866D02*
X163857143Y-106026247D01*
X163857143Y-106026247D02*
X163761905Y-105978628D01*
X163761905Y-105978628D02*
X163571429Y-105931009D01*
X163571429Y-105931009D02*
X163476191Y-105883390D01*
X163476191Y-105883390D02*
X163428572Y-105835771D01*
X163428572Y-105835771D02*
X163380953Y-105740533D01*
X163380953Y-105740533D02*
X163380953Y-105645295D01*
X163380953Y-105645295D02*
X163428572Y-105550057D01*
X163428572Y-105550057D02*
X163476191Y-105502438D01*
X163476191Y-105502438D02*
X163571429Y-105454819D01*
X163571429Y-105454819D02*
X163809524Y-105454819D01*
X163809524Y-105454819D02*
X163952381Y-105502438D01*
X164761905Y-106407200D02*
X164666667Y-106454819D01*
X164666667Y-106454819D02*
X164476191Y-106454819D01*
X164476191Y-106454819D02*
X164380953Y-106407200D01*
X164380953Y-106407200D02*
X164333334Y-106311961D01*
X164333334Y-106311961D02*
X164333334Y-105931009D01*
X164333334Y-105931009D02*
X164380953Y-105835771D01*
X164380953Y-105835771D02*
X164476191Y-105788152D01*
X164476191Y-105788152D02*
X164666667Y-105788152D01*
X164666667Y-105788152D02*
X164761905Y-105835771D01*
X164761905Y-105835771D02*
X164809524Y-105931009D01*
X164809524Y-105931009D02*
X164809524Y-106026247D01*
X164809524Y-106026247D02*
X164333334Y-106121485D01*
X165238096Y-105788152D02*
X165238096Y-106454819D01*
X165238096Y-105883390D02*
X165285715Y-105835771D01*
X165285715Y-105835771D02*
X165380953Y-105788152D01*
X165380953Y-105788152D02*
X165523810Y-105788152D01*
X165523810Y-105788152D02*
X165619048Y-105835771D01*
X165619048Y-105835771D02*
X165666667Y-105931009D01*
X165666667Y-105931009D02*
X165666667Y-106454819D01*
X166095239Y-106407200D02*
X166190477Y-106454819D01*
X166190477Y-106454819D02*
X166380953Y-106454819D01*
X166380953Y-106454819D02*
X166476191Y-106407200D01*
X166476191Y-106407200D02*
X166523810Y-106311961D01*
X166523810Y-106311961D02*
X166523810Y-106264342D01*
X166523810Y-106264342D02*
X166476191Y-106169104D01*
X166476191Y-106169104D02*
X166380953Y-106121485D01*
X166380953Y-106121485D02*
X166238096Y-106121485D01*
X166238096Y-106121485D02*
X166142858Y-106073866D01*
X166142858Y-106073866D02*
X166095239Y-105978628D01*
X166095239Y-105978628D02*
X166095239Y-105931009D01*
X166095239Y-105931009D02*
X166142858Y-105835771D01*
X166142858Y-105835771D02*
X166238096Y-105788152D01*
X166238096Y-105788152D02*
X166380953Y-105788152D01*
X166380953Y-105788152D02*
X166476191Y-105835771D01*
X167095239Y-106454819D02*
X167000001Y-106407200D01*
X167000001Y-106407200D02*
X166952382Y-106359580D01*
X166952382Y-106359580D02*
X166904763Y-106264342D01*
X166904763Y-106264342D02*
X166904763Y-105978628D01*
X166904763Y-105978628D02*
X166952382Y-105883390D01*
X166952382Y-105883390D02*
X167000001Y-105835771D01*
X167000001Y-105835771D02*
X167095239Y-105788152D01*
X167095239Y-105788152D02*
X167238096Y-105788152D01*
X167238096Y-105788152D02*
X167333334Y-105835771D01*
X167333334Y-105835771D02*
X167380953Y-105883390D01*
X167380953Y-105883390D02*
X167428572Y-105978628D01*
X167428572Y-105978628D02*
X167428572Y-106264342D01*
X167428572Y-106264342D02*
X167380953Y-106359580D01*
X167380953Y-106359580D02*
X167333334Y-106407200D01*
X167333334Y-106407200D02*
X167238096Y-106454819D01*
X167238096Y-106454819D02*
X167095239Y-106454819D01*
X167857144Y-106454819D02*
X167857144Y-105788152D01*
X167857144Y-105978628D02*
X167904763Y-105883390D01*
X167904763Y-105883390D02*
X167952382Y-105835771D01*
X167952382Y-105835771D02*
X168047620Y-105788152D01*
X168047620Y-105788152D02*
X168142858Y-105788152D01*
X156738095Y-101454819D02*
X156738095Y-102264342D01*
X156738095Y-102264342D02*
X156785714Y-102359580D01*
X156785714Y-102359580D02*
X156833333Y-102407200D01*
X156833333Y-102407200D02*
X156928571Y-102454819D01*
X156928571Y-102454819D02*
X157119047Y-102454819D01*
X157119047Y-102454819D02*
X157214285Y-102407200D01*
X157214285Y-102407200D02*
X157261904Y-102359580D01*
X157261904Y-102359580D02*
X157309523Y-102264342D01*
X157309523Y-102264342D02*
X157309523Y-101454819D01*
X158214285Y-101454819D02*
X158023809Y-101454819D01*
X158023809Y-101454819D02*
X157928571Y-101502438D01*
X157928571Y-101502438D02*
X157880952Y-101550057D01*
X157880952Y-101550057D02*
X157785714Y-101692914D01*
X157785714Y-101692914D02*
X157738095Y-101883390D01*
X157738095Y-101883390D02*
X157738095Y-102264342D01*
X157738095Y-102264342D02*
X157785714Y-102359580D01*
X157785714Y-102359580D02*
X157833333Y-102407200D01*
X157833333Y-102407200D02*
X157928571Y-102454819D01*
X157928571Y-102454819D02*
X158119047Y-102454819D01*
X158119047Y-102454819D02*
X158214285Y-102407200D01*
X158214285Y-102407200D02*
X158261904Y-102359580D01*
X158261904Y-102359580D02*
X158309523Y-102264342D01*
X158309523Y-102264342D02*
X158309523Y-102026247D01*
X158309523Y-102026247D02*
X158261904Y-101931009D01*
X158261904Y-101931009D02*
X158214285Y-101883390D01*
X158214285Y-101883390D02*
X158119047Y-101835771D01*
X158119047Y-101835771D02*
X157928571Y-101835771D01*
X157928571Y-101835771D02*
X157833333Y-101883390D01*
X157833333Y-101883390D02*
X157785714Y-101931009D01*
X157785714Y-101931009D02*
X157738095Y-102026247D01*
X54454819Y-83761904D02*
X53454819Y-83761904D01*
X53454819Y-83761904D02*
X53454819Y-83523809D01*
X53454819Y-83523809D02*
X53502438Y-83380952D01*
X53502438Y-83380952D02*
X53597676Y-83285714D01*
X53597676Y-83285714D02*
X53692914Y-83238095D01*
X53692914Y-83238095D02*
X53883390Y-83190476D01*
X53883390Y-83190476D02*
X54026247Y-83190476D01*
X54026247Y-83190476D02*
X54216723Y-83238095D01*
X54216723Y-83238095D02*
X54311961Y-83285714D01*
X54311961Y-83285714D02*
X54407200Y-83380952D01*
X54407200Y-83380952D02*
X54454819Y-83523809D01*
X54454819Y-83523809D02*
X54454819Y-83761904D01*
X54407200Y-82809523D02*
X54454819Y-82666666D01*
X54454819Y-82666666D02*
X54454819Y-82428571D01*
X54454819Y-82428571D02*
X54407200Y-82333333D01*
X54407200Y-82333333D02*
X54359580Y-82285714D01*
X54359580Y-82285714D02*
X54264342Y-82238095D01*
X54264342Y-82238095D02*
X54169104Y-82238095D01*
X54169104Y-82238095D02*
X54073866Y-82285714D01*
X54073866Y-82285714D02*
X54026247Y-82333333D01*
X54026247Y-82333333D02*
X53978628Y-82428571D01*
X53978628Y-82428571D02*
X53931009Y-82619047D01*
X53931009Y-82619047D02*
X53883390Y-82714285D01*
X53883390Y-82714285D02*
X53835771Y-82761904D01*
X53835771Y-82761904D02*
X53740533Y-82809523D01*
X53740533Y-82809523D02*
X53645295Y-82809523D01*
X53645295Y-82809523D02*
X53550057Y-82761904D01*
X53550057Y-82761904D02*
X53502438Y-82714285D01*
X53502438Y-82714285D02*
X53454819Y-82619047D01*
X53454819Y-82619047D02*
X53454819Y-82380952D01*
X53454819Y-82380952D02*
X53502438Y-82238095D01*
X54454819Y-81285714D02*
X54454819Y-81857142D01*
X54454819Y-81571428D02*
X53454819Y-81571428D01*
X53454819Y-81571428D02*
X53597676Y-81666666D01*
X53597676Y-81666666D02*
X53692914Y-81761904D01*
X53692914Y-81761904D02*
X53740533Y-81857142D01*
X53883390Y-80714285D02*
X53835771Y-80809523D01*
X53835771Y-80809523D02*
X53788152Y-80857142D01*
X53788152Y-80857142D02*
X53692914Y-80904761D01*
X53692914Y-80904761D02*
X53645295Y-80904761D01*
X53645295Y-80904761D02*
X53550057Y-80857142D01*
X53550057Y-80857142D02*
X53502438Y-80809523D01*
X53502438Y-80809523D02*
X53454819Y-80714285D01*
X53454819Y-80714285D02*
X53454819Y-80523809D01*
X53454819Y-80523809D02*
X53502438Y-80428571D01*
X53502438Y-80428571D02*
X53550057Y-80380952D01*
X53550057Y-80380952D02*
X53645295Y-80333333D01*
X53645295Y-80333333D02*
X53692914Y-80333333D01*
X53692914Y-80333333D02*
X53788152Y-80380952D01*
X53788152Y-80380952D02*
X53835771Y-80428571D01*
X53835771Y-80428571D02*
X53883390Y-80523809D01*
X53883390Y-80523809D02*
X53883390Y-80714285D01*
X53883390Y-80714285D02*
X53931009Y-80809523D01*
X53931009Y-80809523D02*
X53978628Y-80857142D01*
X53978628Y-80857142D02*
X54073866Y-80904761D01*
X54073866Y-80904761D02*
X54264342Y-80904761D01*
X54264342Y-80904761D02*
X54359580Y-80857142D01*
X54359580Y-80857142D02*
X54407200Y-80809523D01*
X54407200Y-80809523D02*
X54454819Y-80714285D01*
X54454819Y-80714285D02*
X54454819Y-80523809D01*
X54454819Y-80523809D02*
X54407200Y-80428571D01*
X54407200Y-80428571D02*
X54359580Y-80380952D01*
X54359580Y-80380952D02*
X54264342Y-80333333D01*
X54264342Y-80333333D02*
X54073866Y-80333333D01*
X54073866Y-80333333D02*
X53978628Y-80380952D01*
X53978628Y-80380952D02*
X53931009Y-80428571D01*
X53931009Y-80428571D02*
X53883390Y-80523809D01*
X53931009Y-79571428D02*
X53978628Y-79428571D01*
X53978628Y-79428571D02*
X54026247Y-79380952D01*
X54026247Y-79380952D02*
X54121485Y-79333333D01*
X54121485Y-79333333D02*
X54264342Y-79333333D01*
X54264342Y-79333333D02*
X54359580Y-79380952D01*
X54359580Y-79380952D02*
X54407200Y-79428571D01*
X54407200Y-79428571D02*
X54454819Y-79523809D01*
X54454819Y-79523809D02*
X54454819Y-79904761D01*
X54454819Y-79904761D02*
X53454819Y-79904761D01*
X53454819Y-79904761D02*
X53454819Y-79571428D01*
X53454819Y-79571428D02*
X53502438Y-79476190D01*
X53502438Y-79476190D02*
X53550057Y-79428571D01*
X53550057Y-79428571D02*
X53645295Y-79380952D01*
X53645295Y-79380952D02*
X53740533Y-79380952D01*
X53740533Y-79380952D02*
X53835771Y-79428571D01*
X53835771Y-79428571D02*
X53883390Y-79476190D01*
X53883390Y-79476190D02*
X53931009Y-79571428D01*
X53931009Y-79571428D02*
X53931009Y-79904761D01*
X53550057Y-78952380D02*
X53502438Y-78904761D01*
X53502438Y-78904761D02*
X53454819Y-78809523D01*
X53454819Y-78809523D02*
X53454819Y-78571428D01*
X53454819Y-78571428D02*
X53502438Y-78476190D01*
X53502438Y-78476190D02*
X53550057Y-78428571D01*
X53550057Y-78428571D02*
X53645295Y-78380952D01*
X53645295Y-78380952D02*
X53740533Y-78380952D01*
X53740533Y-78380952D02*
X53883390Y-78428571D01*
X53883390Y-78428571D02*
X54454819Y-78999999D01*
X54454819Y-78999999D02*
X54454819Y-78380952D01*
X53454819Y-77761904D02*
X53454819Y-77666666D01*
X53454819Y-77666666D02*
X53502438Y-77571428D01*
X53502438Y-77571428D02*
X53550057Y-77523809D01*
X53550057Y-77523809D02*
X53645295Y-77476190D01*
X53645295Y-77476190D02*
X53835771Y-77428571D01*
X53835771Y-77428571D02*
X54073866Y-77428571D01*
X54073866Y-77428571D02*
X54264342Y-77476190D01*
X54264342Y-77476190D02*
X54359580Y-77523809D01*
X54359580Y-77523809D02*
X54407200Y-77571428D01*
X54407200Y-77571428D02*
X54454819Y-77666666D01*
X54454819Y-77666666D02*
X54454819Y-77761904D01*
X54454819Y-77761904D02*
X54407200Y-77857142D01*
X54407200Y-77857142D02*
X54359580Y-77904761D01*
X54359580Y-77904761D02*
X54264342Y-77952380D01*
X54264342Y-77952380D02*
X54073866Y-77999999D01*
X54073866Y-77999999D02*
X53835771Y-77999999D01*
X53835771Y-77999999D02*
X53645295Y-77952380D01*
X53645295Y-77952380D02*
X53550057Y-77904761D01*
X53550057Y-77904761D02*
X53502438Y-77857142D01*
X53502438Y-77857142D02*
X53454819Y-77761904D01*
X54073866Y-76999999D02*
X54073866Y-76238095D01*
X54454819Y-75333333D02*
X53931009Y-75333333D01*
X53931009Y-75333333D02*
X53835771Y-75380952D01*
X53835771Y-75380952D02*
X53788152Y-75476190D01*
X53788152Y-75476190D02*
X53788152Y-75666666D01*
X53788152Y-75666666D02*
X53835771Y-75761904D01*
X54407200Y-75333333D02*
X54454819Y-75428571D01*
X54454819Y-75428571D02*
X54454819Y-75666666D01*
X54454819Y-75666666D02*
X54407200Y-75761904D01*
X54407200Y-75761904D02*
X54311961Y-75809523D01*
X54311961Y-75809523D02*
X54216723Y-75809523D01*
X54216723Y-75809523D02*
X54121485Y-75761904D01*
X54121485Y-75761904D02*
X54073866Y-75666666D01*
X54073866Y-75666666D02*
X54073866Y-75428571D01*
X54073866Y-75428571D02*
X54026247Y-75333333D01*
X54454819Y-74857142D02*
X53788152Y-74857142D01*
X53454819Y-74857142D02*
X53502438Y-74904761D01*
X53502438Y-74904761D02*
X53550057Y-74857142D01*
X53550057Y-74857142D02*
X53502438Y-74809523D01*
X53502438Y-74809523D02*
X53454819Y-74857142D01*
X53454819Y-74857142D02*
X53550057Y-74857142D01*
X54454819Y-74380952D02*
X53788152Y-74380952D01*
X53978628Y-74380952D02*
X53883390Y-74333333D01*
X53883390Y-74333333D02*
X53835771Y-74285714D01*
X53835771Y-74285714D02*
X53788152Y-74190476D01*
X53788152Y-74190476D02*
X53788152Y-74095238D01*
X61238095Y-76954819D02*
X61238095Y-77764342D01*
X61238095Y-77764342D02*
X61285714Y-77859580D01*
X61285714Y-77859580D02*
X61333333Y-77907200D01*
X61333333Y-77907200D02*
X61428571Y-77954819D01*
X61428571Y-77954819D02*
X61619047Y-77954819D01*
X61619047Y-77954819D02*
X61714285Y-77907200D01*
X61714285Y-77907200D02*
X61761904Y-77859580D01*
X61761904Y-77859580D02*
X61809523Y-77764342D01*
X61809523Y-77764342D02*
X61809523Y-76954819D01*
X62190476Y-76954819D02*
X62809523Y-76954819D01*
X62809523Y-76954819D02*
X62476190Y-77335771D01*
X62476190Y-77335771D02*
X62619047Y-77335771D01*
X62619047Y-77335771D02*
X62714285Y-77383390D01*
X62714285Y-77383390D02*
X62761904Y-77431009D01*
X62761904Y-77431009D02*
X62809523Y-77526247D01*
X62809523Y-77526247D02*
X62809523Y-77764342D01*
X62809523Y-77764342D02*
X62761904Y-77859580D01*
X62761904Y-77859580D02*
X62714285Y-77907200D01*
X62714285Y-77907200D02*
X62619047Y-77954819D01*
X62619047Y-77954819D02*
X62333333Y-77954819D01*
X62333333Y-77954819D02*
X62238095Y-77907200D01*
X62238095Y-77907200D02*
X62190476Y-77859580D01*
X140454819Y-80928571D02*
X140454819Y-80357143D01*
X141454819Y-80642857D02*
X140454819Y-80642857D01*
X140788152Y-79595238D02*
X141454819Y-79595238D01*
X140788152Y-80023809D02*
X141311961Y-80023809D01*
X141311961Y-80023809D02*
X141407200Y-79976190D01*
X141407200Y-79976190D02*
X141454819Y-79880952D01*
X141454819Y-79880952D02*
X141454819Y-79738095D01*
X141454819Y-79738095D02*
X141407200Y-79642857D01*
X141407200Y-79642857D02*
X141359580Y-79595238D01*
X141454819Y-79119047D02*
X140788152Y-79119047D01*
X140978628Y-79119047D02*
X140883390Y-79071428D01*
X140883390Y-79071428D02*
X140835771Y-79023809D01*
X140835771Y-79023809D02*
X140788152Y-78928571D01*
X140788152Y-78928571D02*
X140788152Y-78833333D01*
X141454819Y-78499999D02*
X140454819Y-78499999D01*
X140835771Y-78499999D02*
X140788152Y-78404761D01*
X140788152Y-78404761D02*
X140788152Y-78214285D01*
X140788152Y-78214285D02*
X140835771Y-78119047D01*
X140835771Y-78119047D02*
X140883390Y-78071428D01*
X140883390Y-78071428D02*
X140978628Y-78023809D01*
X140978628Y-78023809D02*
X141264342Y-78023809D01*
X141264342Y-78023809D02*
X141359580Y-78071428D01*
X141359580Y-78071428D02*
X141407200Y-78119047D01*
X141407200Y-78119047D02*
X141454819Y-78214285D01*
X141454819Y-78214285D02*
X141454819Y-78404761D01*
X141454819Y-78404761D02*
X141407200Y-78499999D01*
X141454819Y-77595237D02*
X140788152Y-77595237D01*
X140454819Y-77595237D02*
X140502438Y-77642856D01*
X140502438Y-77642856D02*
X140550057Y-77595237D01*
X140550057Y-77595237D02*
X140502438Y-77547618D01*
X140502438Y-77547618D02*
X140454819Y-77595237D01*
X140454819Y-77595237D02*
X140550057Y-77595237D01*
X141454819Y-76690476D02*
X140454819Y-76690476D01*
X141407200Y-76690476D02*
X141454819Y-76785714D01*
X141454819Y-76785714D02*
X141454819Y-76976190D01*
X141454819Y-76976190D02*
X141407200Y-77071428D01*
X141407200Y-77071428D02*
X141359580Y-77119047D01*
X141359580Y-77119047D02*
X141264342Y-77166666D01*
X141264342Y-77166666D02*
X140978628Y-77166666D01*
X140978628Y-77166666D02*
X140883390Y-77119047D01*
X140883390Y-77119047D02*
X140835771Y-77071428D01*
X140835771Y-77071428D02*
X140788152Y-76976190D01*
X140788152Y-76976190D02*
X140788152Y-76785714D01*
X140788152Y-76785714D02*
X140835771Y-76690476D01*
X141454819Y-76214285D02*
X140788152Y-76214285D01*
X140454819Y-76214285D02*
X140502438Y-76261904D01*
X140502438Y-76261904D02*
X140550057Y-76214285D01*
X140550057Y-76214285D02*
X140502438Y-76166666D01*
X140502438Y-76166666D02*
X140454819Y-76214285D01*
X140454819Y-76214285D02*
X140550057Y-76214285D01*
X140788152Y-75880952D02*
X140788152Y-75500000D01*
X140454819Y-75738095D02*
X141311961Y-75738095D01*
X141311961Y-75738095D02*
X141407200Y-75690476D01*
X141407200Y-75690476D02*
X141454819Y-75595238D01*
X141454819Y-75595238D02*
X141454819Y-75500000D01*
X140788152Y-75261904D02*
X141454819Y-75023809D01*
X140788152Y-74785714D02*
X141454819Y-75023809D01*
X141454819Y-75023809D02*
X141692914Y-75119047D01*
X141692914Y-75119047D02*
X141740533Y-75166666D01*
X141740533Y-75166666D02*
X141788152Y-75261904D01*
X141407200Y-73690475D02*
X141454819Y-73595237D01*
X141454819Y-73595237D02*
X141454819Y-73404761D01*
X141454819Y-73404761D02*
X141407200Y-73309523D01*
X141407200Y-73309523D02*
X141311961Y-73261904D01*
X141311961Y-73261904D02*
X141264342Y-73261904D01*
X141264342Y-73261904D02*
X141169104Y-73309523D01*
X141169104Y-73309523D02*
X141121485Y-73404761D01*
X141121485Y-73404761D02*
X141121485Y-73547618D01*
X141121485Y-73547618D02*
X141073866Y-73642856D01*
X141073866Y-73642856D02*
X140978628Y-73690475D01*
X140978628Y-73690475D02*
X140931009Y-73690475D01*
X140931009Y-73690475D02*
X140835771Y-73642856D01*
X140835771Y-73642856D02*
X140788152Y-73547618D01*
X140788152Y-73547618D02*
X140788152Y-73404761D01*
X140788152Y-73404761D02*
X140835771Y-73309523D01*
X141407200Y-72452380D02*
X141454819Y-72547618D01*
X141454819Y-72547618D02*
X141454819Y-72738094D01*
X141454819Y-72738094D02*
X141407200Y-72833332D01*
X141407200Y-72833332D02*
X141311961Y-72880951D01*
X141311961Y-72880951D02*
X140931009Y-72880951D01*
X140931009Y-72880951D02*
X140835771Y-72833332D01*
X140835771Y-72833332D02*
X140788152Y-72738094D01*
X140788152Y-72738094D02*
X140788152Y-72547618D01*
X140788152Y-72547618D02*
X140835771Y-72452380D01*
X140835771Y-72452380D02*
X140931009Y-72404761D01*
X140931009Y-72404761D02*
X141026247Y-72404761D01*
X141026247Y-72404761D02*
X141121485Y-72880951D01*
X140788152Y-71976189D02*
X141454819Y-71976189D01*
X140883390Y-71976189D02*
X140835771Y-71928570D01*
X140835771Y-71928570D02*
X140788152Y-71833332D01*
X140788152Y-71833332D02*
X140788152Y-71690475D01*
X140788152Y-71690475D02*
X140835771Y-71595237D01*
X140835771Y-71595237D02*
X140931009Y-71547618D01*
X140931009Y-71547618D02*
X141454819Y-71547618D01*
X141407200Y-71119046D02*
X141454819Y-71023808D01*
X141454819Y-71023808D02*
X141454819Y-70833332D01*
X141454819Y-70833332D02*
X141407200Y-70738094D01*
X141407200Y-70738094D02*
X141311961Y-70690475D01*
X141311961Y-70690475D02*
X141264342Y-70690475D01*
X141264342Y-70690475D02*
X141169104Y-70738094D01*
X141169104Y-70738094D02*
X141121485Y-70833332D01*
X141121485Y-70833332D02*
X141121485Y-70976189D01*
X141121485Y-70976189D02*
X141073866Y-71071427D01*
X141073866Y-71071427D02*
X140978628Y-71119046D01*
X140978628Y-71119046D02*
X140931009Y-71119046D01*
X140931009Y-71119046D02*
X140835771Y-71071427D01*
X140835771Y-71071427D02*
X140788152Y-70976189D01*
X140788152Y-70976189D02*
X140788152Y-70833332D01*
X140788152Y-70833332D02*
X140835771Y-70738094D01*
X141454819Y-70119046D02*
X141407200Y-70214284D01*
X141407200Y-70214284D02*
X141359580Y-70261903D01*
X141359580Y-70261903D02*
X141264342Y-70309522D01*
X141264342Y-70309522D02*
X140978628Y-70309522D01*
X140978628Y-70309522D02*
X140883390Y-70261903D01*
X140883390Y-70261903D02*
X140835771Y-70214284D01*
X140835771Y-70214284D02*
X140788152Y-70119046D01*
X140788152Y-70119046D02*
X140788152Y-69976189D01*
X140788152Y-69976189D02*
X140835771Y-69880951D01*
X140835771Y-69880951D02*
X140883390Y-69833332D01*
X140883390Y-69833332D02*
X140978628Y-69785713D01*
X140978628Y-69785713D02*
X141264342Y-69785713D01*
X141264342Y-69785713D02*
X141359580Y-69833332D01*
X141359580Y-69833332D02*
X141407200Y-69880951D01*
X141407200Y-69880951D02*
X141454819Y-69976189D01*
X141454819Y-69976189D02*
X141454819Y-70119046D01*
X141454819Y-69357141D02*
X140788152Y-69357141D01*
X140978628Y-69357141D02*
X140883390Y-69309522D01*
X140883390Y-69309522D02*
X140835771Y-69261903D01*
X140835771Y-69261903D02*
X140788152Y-69166665D01*
X140788152Y-69166665D02*
X140788152Y-69071427D01*
X146738095Y-69954819D02*
X146738095Y-70764342D01*
X146738095Y-70764342D02*
X146785714Y-70859580D01*
X146785714Y-70859580D02*
X146833333Y-70907200D01*
X146833333Y-70907200D02*
X146928571Y-70954819D01*
X146928571Y-70954819D02*
X147119047Y-70954819D01*
X147119047Y-70954819D02*
X147214285Y-70907200D01*
X147214285Y-70907200D02*
X147261904Y-70859580D01*
X147261904Y-70859580D02*
X147309523Y-70764342D01*
X147309523Y-70764342D02*
X147309523Y-69954819D01*
X148214285Y-70288152D02*
X148214285Y-70954819D01*
X147976190Y-69907200D02*
X147738095Y-70621485D01*
X147738095Y-70621485D02*
X148357142Y-70621485D01*
X60142856Y-106502438D02*
X60047618Y-106454819D01*
X60047618Y-106454819D02*
X59904761Y-106454819D01*
X59904761Y-106454819D02*
X59761904Y-106502438D01*
X59761904Y-106502438D02*
X59666666Y-106597676D01*
X59666666Y-106597676D02*
X59619047Y-106692914D01*
X59619047Y-106692914D02*
X59571428Y-106883390D01*
X59571428Y-106883390D02*
X59571428Y-107026247D01*
X59571428Y-107026247D02*
X59619047Y-107216723D01*
X59619047Y-107216723D02*
X59666666Y-107311961D01*
X59666666Y-107311961D02*
X59761904Y-107407200D01*
X59761904Y-107407200D02*
X59904761Y-107454819D01*
X59904761Y-107454819D02*
X59999999Y-107454819D01*
X59999999Y-107454819D02*
X60142856Y-107407200D01*
X60142856Y-107407200D02*
X60190475Y-107359580D01*
X60190475Y-107359580D02*
X60190475Y-107026247D01*
X60190475Y-107026247D02*
X59999999Y-107026247D01*
X60809523Y-106978628D02*
X60809523Y-107454819D01*
X60476190Y-106454819D02*
X60809523Y-106978628D01*
X60809523Y-106978628D02*
X61142856Y-106454819D01*
X61476190Y-107073866D02*
X62238095Y-107073866D01*
X62857142Y-106883390D02*
X62761904Y-106835771D01*
X62761904Y-106835771D02*
X62714285Y-106788152D01*
X62714285Y-106788152D02*
X62666666Y-106692914D01*
X62666666Y-106692914D02*
X62666666Y-106645295D01*
X62666666Y-106645295D02*
X62714285Y-106550057D01*
X62714285Y-106550057D02*
X62761904Y-106502438D01*
X62761904Y-106502438D02*
X62857142Y-106454819D01*
X62857142Y-106454819D02*
X63047618Y-106454819D01*
X63047618Y-106454819D02*
X63142856Y-106502438D01*
X63142856Y-106502438D02*
X63190475Y-106550057D01*
X63190475Y-106550057D02*
X63238094Y-106645295D01*
X63238094Y-106645295D02*
X63238094Y-106692914D01*
X63238094Y-106692914D02*
X63190475Y-106788152D01*
X63190475Y-106788152D02*
X63142856Y-106835771D01*
X63142856Y-106835771D02*
X63047618Y-106883390D01*
X63047618Y-106883390D02*
X62857142Y-106883390D01*
X62857142Y-106883390D02*
X62761904Y-106931009D01*
X62761904Y-106931009D02*
X62714285Y-106978628D01*
X62714285Y-106978628D02*
X62666666Y-107073866D01*
X62666666Y-107073866D02*
X62666666Y-107264342D01*
X62666666Y-107264342D02*
X62714285Y-107359580D01*
X62714285Y-107359580D02*
X62761904Y-107407200D01*
X62761904Y-107407200D02*
X62857142Y-107454819D01*
X62857142Y-107454819D02*
X63047618Y-107454819D01*
X63047618Y-107454819D02*
X63142856Y-107407200D01*
X63142856Y-107407200D02*
X63190475Y-107359580D01*
X63190475Y-107359580D02*
X63238094Y-107264342D01*
X63238094Y-107264342D02*
X63238094Y-107073866D01*
X63238094Y-107073866D02*
X63190475Y-106978628D01*
X63190475Y-106978628D02*
X63142856Y-106931009D01*
X63142856Y-106931009D02*
X63047618Y-106883390D01*
X64142856Y-106454819D02*
X63666666Y-106454819D01*
X63666666Y-106454819D02*
X63619047Y-106931009D01*
X63619047Y-106931009D02*
X63666666Y-106883390D01*
X63666666Y-106883390D02*
X63761904Y-106835771D01*
X63761904Y-106835771D02*
X63999999Y-106835771D01*
X63999999Y-106835771D02*
X64095237Y-106883390D01*
X64095237Y-106883390D02*
X64142856Y-106931009D01*
X64142856Y-106931009D02*
X64190475Y-107026247D01*
X64190475Y-107026247D02*
X64190475Y-107264342D01*
X64190475Y-107264342D02*
X64142856Y-107359580D01*
X64142856Y-107359580D02*
X64095237Y-107407200D01*
X64095237Y-107407200D02*
X63999999Y-107454819D01*
X63999999Y-107454819D02*
X63761904Y-107454819D01*
X63761904Y-107454819D02*
X63666666Y-107407200D01*
X63666666Y-107407200D02*
X63619047Y-107359580D01*
X65142856Y-107454819D02*
X64571428Y-107454819D01*
X64857142Y-107454819D02*
X64857142Y-106454819D01*
X64857142Y-106454819D02*
X64761904Y-106597676D01*
X64761904Y-106597676D02*
X64666666Y-106692914D01*
X64666666Y-106692914D02*
X64571428Y-106740533D01*
X66095237Y-107454819D02*
X65523809Y-107454819D01*
X65809523Y-107454819D02*
X65809523Y-106454819D01*
X65809523Y-106454819D02*
X65714285Y-106597676D01*
X65714285Y-106597676D02*
X65619047Y-106692914D01*
X65619047Y-106692914D02*
X65523809Y-106740533D01*
X67285714Y-106454819D02*
X67285714Y-107264342D01*
X67285714Y-107264342D02*
X67333333Y-107359580D01*
X67333333Y-107359580D02*
X67380952Y-107407200D01*
X67380952Y-107407200D02*
X67476190Y-107454819D01*
X67476190Y-107454819D02*
X67666666Y-107454819D01*
X67666666Y-107454819D02*
X67761904Y-107407200D01*
X67761904Y-107407200D02*
X67809523Y-107359580D01*
X67809523Y-107359580D02*
X67857142Y-107264342D01*
X67857142Y-107264342D02*
X67857142Y-106454819D01*
X68190476Y-106454819D02*
X68523809Y-107454819D01*
X68523809Y-107454819D02*
X68857142Y-106454819D01*
X69904762Y-107407200D02*
X70000000Y-107454819D01*
X70000000Y-107454819D02*
X70190476Y-107454819D01*
X70190476Y-107454819D02*
X70285714Y-107407200D01*
X70285714Y-107407200D02*
X70333333Y-107311961D01*
X70333333Y-107311961D02*
X70333333Y-107264342D01*
X70333333Y-107264342D02*
X70285714Y-107169104D01*
X70285714Y-107169104D02*
X70190476Y-107121485D01*
X70190476Y-107121485D02*
X70047619Y-107121485D01*
X70047619Y-107121485D02*
X69952381Y-107073866D01*
X69952381Y-107073866D02*
X69904762Y-106978628D01*
X69904762Y-106978628D02*
X69904762Y-106931009D01*
X69904762Y-106931009D02*
X69952381Y-106835771D01*
X69952381Y-106835771D02*
X70047619Y-106788152D01*
X70047619Y-106788152D02*
X70190476Y-106788152D01*
X70190476Y-106788152D02*
X70285714Y-106835771D01*
X71142857Y-107407200D02*
X71047619Y-107454819D01*
X71047619Y-107454819D02*
X70857143Y-107454819D01*
X70857143Y-107454819D02*
X70761905Y-107407200D01*
X70761905Y-107407200D02*
X70714286Y-107311961D01*
X70714286Y-107311961D02*
X70714286Y-106931009D01*
X70714286Y-106931009D02*
X70761905Y-106835771D01*
X70761905Y-106835771D02*
X70857143Y-106788152D01*
X70857143Y-106788152D02*
X71047619Y-106788152D01*
X71047619Y-106788152D02*
X71142857Y-106835771D01*
X71142857Y-106835771D02*
X71190476Y-106931009D01*
X71190476Y-106931009D02*
X71190476Y-107026247D01*
X71190476Y-107026247D02*
X70714286Y-107121485D01*
X71619048Y-106788152D02*
X71619048Y-107454819D01*
X71619048Y-106883390D02*
X71666667Y-106835771D01*
X71666667Y-106835771D02*
X71761905Y-106788152D01*
X71761905Y-106788152D02*
X71904762Y-106788152D01*
X71904762Y-106788152D02*
X72000000Y-106835771D01*
X72000000Y-106835771D02*
X72047619Y-106931009D01*
X72047619Y-106931009D02*
X72047619Y-107454819D01*
X72476191Y-107407200D02*
X72571429Y-107454819D01*
X72571429Y-107454819D02*
X72761905Y-107454819D01*
X72761905Y-107454819D02*
X72857143Y-107407200D01*
X72857143Y-107407200D02*
X72904762Y-107311961D01*
X72904762Y-107311961D02*
X72904762Y-107264342D01*
X72904762Y-107264342D02*
X72857143Y-107169104D01*
X72857143Y-107169104D02*
X72761905Y-107121485D01*
X72761905Y-107121485D02*
X72619048Y-107121485D01*
X72619048Y-107121485D02*
X72523810Y-107073866D01*
X72523810Y-107073866D02*
X72476191Y-106978628D01*
X72476191Y-106978628D02*
X72476191Y-106931009D01*
X72476191Y-106931009D02*
X72523810Y-106835771D01*
X72523810Y-106835771D02*
X72619048Y-106788152D01*
X72619048Y-106788152D02*
X72761905Y-106788152D01*
X72761905Y-106788152D02*
X72857143Y-106835771D01*
X73476191Y-107454819D02*
X73380953Y-107407200D01*
X73380953Y-107407200D02*
X73333334Y-107359580D01*
X73333334Y-107359580D02*
X73285715Y-107264342D01*
X73285715Y-107264342D02*
X73285715Y-106978628D01*
X73285715Y-106978628D02*
X73333334Y-106883390D01*
X73333334Y-106883390D02*
X73380953Y-106835771D01*
X73380953Y-106835771D02*
X73476191Y-106788152D01*
X73476191Y-106788152D02*
X73619048Y-106788152D01*
X73619048Y-106788152D02*
X73714286Y-106835771D01*
X73714286Y-106835771D02*
X73761905Y-106883390D01*
X73761905Y-106883390D02*
X73809524Y-106978628D01*
X73809524Y-106978628D02*
X73809524Y-107264342D01*
X73809524Y-107264342D02*
X73761905Y-107359580D01*
X73761905Y-107359580D02*
X73714286Y-107407200D01*
X73714286Y-107407200D02*
X73619048Y-107454819D01*
X73619048Y-107454819D02*
X73476191Y-107454819D01*
X74238096Y-107454819D02*
X74238096Y-106788152D01*
X74238096Y-106978628D02*
X74285715Y-106883390D01*
X74285715Y-106883390D02*
X74333334Y-106835771D01*
X74333334Y-106835771D02*
X74428572Y-106788152D01*
X74428572Y-106788152D02*
X74523810Y-106788152D01*
X59238095Y-102454819D02*
X59238095Y-103264342D01*
X59238095Y-103264342D02*
X59285714Y-103359580D01*
X59285714Y-103359580D02*
X59333333Y-103407200D01*
X59333333Y-103407200D02*
X59428571Y-103454819D01*
X59428571Y-103454819D02*
X59619047Y-103454819D01*
X59619047Y-103454819D02*
X59714285Y-103407200D01*
X59714285Y-103407200D02*
X59761904Y-103359580D01*
X59761904Y-103359580D02*
X59809523Y-103264342D01*
X59809523Y-103264342D02*
X59809523Y-102454819D01*
X60809523Y-103454819D02*
X60238095Y-103454819D01*
X60523809Y-103454819D02*
X60523809Y-102454819D01*
X60523809Y-102454819D02*
X60428571Y-102597676D01*
X60428571Y-102597676D02*
X60333333Y-102692914D01*
X60333333Y-102692914D02*
X60238095Y-102740533D01*
D11*
%TO.C,R1*%
X66000000Y-73150000D02*
X66000000Y-75000000D01*
X67600000Y-75000000D02*
X64400000Y-75000000D01*
X64400000Y-75000000D02*
X64400000Y-84000000D01*
X67600000Y-84000000D02*
X67600000Y-75000000D01*
X64400000Y-84000000D02*
X67600000Y-84000000D01*
X66000000Y-85850000D02*
X66000000Y-84000000D01*
D12*
%TO.C,U7*%
X137950000Y-104750000D02*
X137950000Y-56550000D01*
X137950000Y-56550000D02*
X128070000Y-56550000D01*
X133000000Y-110950000D02*
X115000000Y-110950000D01*
X133000000Y-104750000D02*
X137950000Y-104750000D01*
X133000000Y-104750000D02*
X133000000Y-110950000D01*
X128070000Y-56550000D02*
X128070000Y-55650000D01*
X128070000Y-55650000D02*
X119940000Y-55650000D01*
X119940000Y-56550000D02*
X110050000Y-56550000D01*
X119940000Y-55650000D02*
X119940000Y-56550000D01*
X115000000Y-110950000D02*
X115000000Y-104750000D01*
X115000000Y-104750000D02*
X133000000Y-104750000D01*
X110050000Y-104750000D02*
X115000000Y-104750000D01*
X110050000Y-56550000D02*
X110050000Y-104750000D01*
D11*
%TO.C,R2*%
X143000000Y-95200000D02*
X144850000Y-95200000D01*
X144850000Y-93600000D02*
X144850000Y-96800000D01*
X144850000Y-96800000D02*
X153850000Y-96800000D01*
X153850000Y-93600000D02*
X144850000Y-93600000D01*
X153850000Y-96800000D02*
X153850000Y-93600000D01*
X155700000Y-95200000D02*
X153850000Y-95200000D01*
%TD*%
M02*
