M48
; DRILL file {KiCad 7.0.9} date Sun Feb  4 14:24:32 2024
; FORMAT={-:-/ absolute / metric / decimal}
; #@! TF.CreationDate,2024-02-04T14:24:32+02:00
; #@! TF.GenerationSoftware,Kicad,Pcbnew,7.0.9
; #@! TF.FileFunction,Plated,1,2,PTH
FMAT,2
METRIC
; #@! TA.AperFunction,Plated,PTH,ViaDrill
T1C0.600
; #@! TA.AperFunction,Plated,PTH,ComponentDrill
T2C0.800
; #@! TA.AperFunction,Plated,PTH,ComponentDrill
T3C1.020
; #@! TA.AperFunction,Plated,PTH,ComponentDrill
T4C1.200
%
G90
G05
T1
X114.0Y-52.5
X116.0Y-54.75
X121.0Y-52.75
X121.0Y-85.72
X123.25Y-51.054
X123.25Y-83.18
X125.25Y-49.2
X125.25Y-80.64
X133.5Y-45.5
X141.75Y-47.0
X149.4Y-57.8
T2
X66.0Y-73.15
X66.0Y-85.85
X143.0Y-95.2
X155.7Y-95.2
T3
X59.5Y-77.96
X59.5Y-80.5
X59.5Y-83.04
X60.92Y-100.0
X63.46Y-100.0
X66.0Y-100.0
X68.54Y-100.0
X71.08Y-100.0
X76.96Y-100.0
X79.5Y-100.0
X82.04Y-100.0
X111.35Y-57.78
X111.35Y-60.32
X111.35Y-62.86
X111.35Y-65.4
X111.35Y-67.94
X111.35Y-70.48
X111.35Y-73.02
X111.35Y-75.56
X111.35Y-78.1
X111.35Y-80.64
X111.35Y-83.18
X111.35Y-85.72
X111.35Y-88.26
X111.35Y-90.8
X111.35Y-93.34
X111.35Y-95.88
X111.35Y-98.42
X111.35Y-100.96
X111.35Y-103.5
X136.75Y-57.78
X136.75Y-60.32
X136.75Y-62.86
X136.75Y-65.4
X136.75Y-67.94
X136.75Y-70.48
X136.75Y-73.02
X136.75Y-75.56
X136.75Y-78.1
X136.75Y-80.64
X136.75Y-83.18
X136.75Y-85.72
X136.75Y-88.26
X136.75Y-90.8
X136.75Y-93.34
X136.75Y-95.88
X136.75Y-98.42
X136.75Y-100.96
X136.75Y-103.5
X145.46Y-101.0
X147.0Y-72.96
X147.0Y-75.5
X147.0Y-78.04
X148.0Y-101.0
X150.54Y-101.0
X159.92Y-101.0
X162.46Y-101.0
X165.0Y-101.0
T4
X54.22Y-63.0
X59.3Y-63.0
X64.38Y-63.0
X69.46Y-63.0
X74.54Y-63.0
X79.62Y-63.0
X84.7Y-63.0
X89.78Y-63.0
X101.0Y-62.22
X101.0Y-67.3
X101.0Y-72.38
X101.0Y-77.46
X101.0Y-82.54
X101.0Y-87.62
X101.0Y-92.7
X101.0Y-97.78
X145.0Y-45.0
X150.0Y-45.0
X155.0Y-45.0
X160.0Y-45.0
X165.0Y-45.0
X170.0Y-45.0
T0
M30
