%TF.GenerationSoftware,KiCad,Pcbnew,7.0.9*%
%TF.CreationDate,2024-02-04T14:24:29+02:00*%
%TF.ProjectId,Liubomir_Stanev_project,4c697562-6f6d-4697-925f-5374616e6576,rev?*%
%TF.SameCoordinates,Original*%
%TF.FileFunction,Copper,L2,Bot*%
%TF.FilePolarity,Positive*%
%FSLAX46Y46*%
G04 Gerber Fmt 4.6, Leading zero omitted, Abs format (unit mm)*
G04 Created by KiCad (PCBNEW 7.0.9) date 2024-02-04 14:24:29*
%MOMM*%
%LPD*%
G01*
G04 APERTURE LIST*
%ADD10C,0.700000*%
%TA.AperFunction,NonConductor*%
%ADD11C,0.700000*%
%TD*%
%ADD12C,0.500000*%
%TA.AperFunction,NonConductor*%
%ADD13C,0.500000*%
%TD*%
%TA.AperFunction,ComponentPad*%
%ADD14R,1.530000X1.530000*%
%TD*%
%TA.AperFunction,ComponentPad*%
%ADD15C,1.530000*%
%TD*%
%TA.AperFunction,ComponentPad*%
%ADD16C,1.600000*%
%TD*%
%TA.AperFunction,ComponentPad*%
%ADD17O,1.600000X1.600000*%
%TD*%
%TA.AperFunction,ComponentPad*%
%ADD18R,2.400000X2.400000*%
%TD*%
%TA.AperFunction,ComponentPad*%
%ADD19C,2.400000*%
%TD*%
%TA.AperFunction,ViaPad*%
%ADD20C,1.200000*%
%TD*%
%TA.AperFunction,Conductor*%
%ADD21C,1.000000*%
%TD*%
%TA.AperFunction,Conductor*%
%ADD22C,0.500000*%
%TD*%
G04 APERTURE END LIST*
D10*
D11*
X182396616Y-103596457D02*
X183825188Y-103596457D01*
X183825188Y-103596457D02*
X183825188Y-106596457D01*
X183825188Y-106596457D02*
X182968045Y-106596457D01*
X182968045Y-106596457D02*
X182539474Y-106453600D01*
X182539474Y-106453600D02*
X182253759Y-106167885D01*
X182253759Y-106167885D02*
X182110902Y-105882171D01*
X182110902Y-105882171D02*
X182110902Y-105453600D01*
X182110902Y-105453600D02*
X182253759Y-105167885D01*
X182253759Y-105167885D02*
X182539474Y-104882171D01*
X182539474Y-104882171D02*
X182968045Y-104739314D01*
X182968045Y-104739314D02*
X183825188Y-104739314D01*
X180253759Y-103596457D02*
X179682331Y-103596457D01*
X179682331Y-103596457D02*
X179396616Y-103739314D01*
X179396616Y-103739314D02*
X179110902Y-104025028D01*
X179110902Y-104025028D02*
X178968045Y-104596457D01*
X178968045Y-104596457D02*
X178968045Y-105596457D01*
X178968045Y-105596457D02*
X179110902Y-106167885D01*
X179110902Y-106167885D02*
X179396616Y-106453600D01*
X179396616Y-106453600D02*
X179682331Y-106596457D01*
X179682331Y-106596457D02*
X180253759Y-106596457D01*
X180253759Y-106596457D02*
X180539474Y-106453600D01*
X180539474Y-106453600D02*
X180825188Y-106167885D01*
X180825188Y-106167885D02*
X180968045Y-105596457D01*
X180968045Y-105596457D02*
X180968045Y-104596457D01*
X180968045Y-104596457D02*
X180825188Y-104025028D01*
X180825188Y-104025028D02*
X180539474Y-103739314D01*
X180539474Y-103739314D02*
X180253759Y-103596457D01*
X176253759Y-103596457D02*
X177682331Y-103596457D01*
X177682331Y-103596457D02*
X177682331Y-106596457D01*
X177682331Y-106596457D02*
X176825188Y-106596457D01*
X176825188Y-106596457D02*
X176396617Y-106453600D01*
X176396617Y-106453600D02*
X176110902Y-106167885D01*
X176110902Y-106167885D02*
X175968045Y-105882171D01*
X175968045Y-105882171D02*
X175968045Y-105453600D01*
X175968045Y-105453600D02*
X176110902Y-105167885D01*
X176110902Y-105167885D02*
X176396617Y-104882171D01*
X176396617Y-104882171D02*
X176825188Y-104739314D01*
X176825188Y-104739314D02*
X177682331Y-104739314D01*
X174682331Y-106596457D02*
X174682331Y-103596457D01*
X172968045Y-106596457D02*
X174253759Y-104882171D01*
X172968045Y-103596457D02*
X174682331Y-105310742D01*
X171825188Y-105739314D02*
X170396617Y-105739314D01*
X172110902Y-106596457D02*
X171110902Y-103596457D01*
X171110902Y-103596457D02*
X170110902Y-106596457D01*
D10*
D11*
X193825188Y-55596457D02*
X193825188Y-52596457D01*
X193825188Y-52596457D02*
X192825188Y-54739314D01*
X192825188Y-54739314D02*
X191825188Y-52596457D01*
X191825188Y-52596457D02*
X191825188Y-55596457D01*
X190539474Y-54739314D02*
X189110903Y-54739314D01*
X190825188Y-55596457D02*
X189825188Y-52596457D01*
X189825188Y-52596457D02*
X188825188Y-55596457D01*
X187825188Y-55596457D02*
X187825188Y-52596457D01*
X186396617Y-55596457D02*
X186396617Y-52596457D01*
X186396617Y-52596457D02*
X184682331Y-55596457D01*
X184682331Y-55596457D02*
X184682331Y-52596457D01*
X179968046Y-54025028D02*
X179539474Y-54167885D01*
X179539474Y-54167885D02*
X179396617Y-54310742D01*
X179396617Y-54310742D02*
X179253760Y-54596457D01*
X179253760Y-54596457D02*
X179253760Y-55025028D01*
X179253760Y-55025028D02*
X179396617Y-55310742D01*
X179396617Y-55310742D02*
X179539474Y-55453600D01*
X179539474Y-55453600D02*
X179825189Y-55596457D01*
X179825189Y-55596457D02*
X180968046Y-55596457D01*
X180968046Y-55596457D02*
X180968046Y-52596457D01*
X180968046Y-52596457D02*
X179968046Y-52596457D01*
X179968046Y-52596457D02*
X179682332Y-52739314D01*
X179682332Y-52739314D02*
X179539474Y-52882171D01*
X179539474Y-52882171D02*
X179396617Y-53167885D01*
X179396617Y-53167885D02*
X179396617Y-53453600D01*
X179396617Y-53453600D02*
X179539474Y-53739314D01*
X179539474Y-53739314D02*
X179682332Y-53882171D01*
X179682332Y-53882171D02*
X179968046Y-54025028D01*
X179968046Y-54025028D02*
X180968046Y-54025028D01*
X177396617Y-52596457D02*
X176825189Y-52596457D01*
X176825189Y-52596457D02*
X176539474Y-52739314D01*
X176539474Y-52739314D02*
X176253760Y-53025028D01*
X176253760Y-53025028D02*
X176110903Y-53596457D01*
X176110903Y-53596457D02*
X176110903Y-54596457D01*
X176110903Y-54596457D02*
X176253760Y-55167885D01*
X176253760Y-55167885D02*
X176539474Y-55453600D01*
X176539474Y-55453600D02*
X176825189Y-55596457D01*
X176825189Y-55596457D02*
X177396617Y-55596457D01*
X177396617Y-55596457D02*
X177682332Y-55453600D01*
X177682332Y-55453600D02*
X177968046Y-55167885D01*
X177968046Y-55167885D02*
X178110903Y-54596457D01*
X178110903Y-54596457D02*
X178110903Y-53596457D01*
X178110903Y-53596457D02*
X177968046Y-53025028D01*
X177968046Y-53025028D02*
X177682332Y-52739314D01*
X177682332Y-52739314D02*
X177396617Y-52596457D01*
X174968046Y-54739314D02*
X173539475Y-54739314D01*
X175253760Y-55596457D02*
X174253760Y-52596457D01*
X174253760Y-52596457D02*
X173253760Y-55596457D01*
X170539474Y-55596457D02*
X171539474Y-54167885D01*
X172253760Y-55596457D02*
X172253760Y-52596457D01*
X172253760Y-52596457D02*
X171110903Y-52596457D01*
X171110903Y-52596457D02*
X170825188Y-52739314D01*
X170825188Y-52739314D02*
X170682331Y-52882171D01*
X170682331Y-52882171D02*
X170539474Y-53167885D01*
X170539474Y-53167885D02*
X170539474Y-53596457D01*
X170539474Y-53596457D02*
X170682331Y-53882171D01*
X170682331Y-53882171D02*
X170825188Y-54025028D01*
X170825188Y-54025028D02*
X171110903Y-54167885D01*
X171110903Y-54167885D02*
X172253760Y-54167885D01*
X169253760Y-55596457D02*
X169253760Y-52596457D01*
X169253760Y-52596457D02*
X168539474Y-52596457D01*
X168539474Y-52596457D02*
X168110903Y-52739314D01*
X168110903Y-52739314D02*
X167825188Y-53025028D01*
X167825188Y-53025028D02*
X167682331Y-53310742D01*
X167682331Y-53310742D02*
X167539474Y-53882171D01*
X167539474Y-53882171D02*
X167539474Y-54310742D01*
X167539474Y-54310742D02*
X167682331Y-54882171D01*
X167682331Y-54882171D02*
X167825188Y-55167885D01*
X167825188Y-55167885D02*
X168110903Y-55453600D01*
X168110903Y-55453600D02*
X168539474Y-55596457D01*
X168539474Y-55596457D02*
X169253760Y-55596457D01*
D10*
D11*
X182825188Y-45025028D02*
X182396616Y-45167885D01*
X182396616Y-45167885D02*
X182253759Y-45310742D01*
X182253759Y-45310742D02*
X182110902Y-45596457D01*
X182110902Y-45596457D02*
X182110902Y-46025028D01*
X182110902Y-46025028D02*
X182253759Y-46310742D01*
X182253759Y-46310742D02*
X182396616Y-46453600D01*
X182396616Y-46453600D02*
X182682331Y-46596457D01*
X182682331Y-46596457D02*
X183825188Y-46596457D01*
X183825188Y-46596457D02*
X183825188Y-43596457D01*
X183825188Y-43596457D02*
X182825188Y-43596457D01*
X182825188Y-43596457D02*
X182539474Y-43739314D01*
X182539474Y-43739314D02*
X182396616Y-43882171D01*
X182396616Y-43882171D02*
X182253759Y-44167885D01*
X182253759Y-44167885D02*
X182253759Y-44453600D01*
X182253759Y-44453600D02*
X182396616Y-44739314D01*
X182396616Y-44739314D02*
X182539474Y-44882171D01*
X182539474Y-44882171D02*
X182825188Y-45025028D01*
X182825188Y-45025028D02*
X183825188Y-45025028D01*
X180253759Y-43596457D02*
X179682331Y-43596457D01*
X179682331Y-43596457D02*
X179396616Y-43739314D01*
X179396616Y-43739314D02*
X179110902Y-44025028D01*
X179110902Y-44025028D02*
X178968045Y-44596457D01*
X178968045Y-44596457D02*
X178968045Y-45596457D01*
X178968045Y-45596457D02*
X179110902Y-46167885D01*
X179110902Y-46167885D02*
X179396616Y-46453600D01*
X179396616Y-46453600D02*
X179682331Y-46596457D01*
X179682331Y-46596457D02*
X180253759Y-46596457D01*
X180253759Y-46596457D02*
X180539474Y-46453600D01*
X180539474Y-46453600D02*
X180825188Y-46167885D01*
X180825188Y-46167885D02*
X180968045Y-45596457D01*
X180968045Y-45596457D02*
X180968045Y-44596457D01*
X180968045Y-44596457D02*
X180825188Y-44025028D01*
X180825188Y-44025028D02*
X180539474Y-43739314D01*
X180539474Y-43739314D02*
X180253759Y-43596457D01*
X178110902Y-43596457D02*
X176396617Y-43596457D01*
X177253759Y-46596457D02*
X177253759Y-43596457D01*
D12*
D13*
X184194862Y-110729238D02*
X184194862Y-108729238D01*
X184194862Y-108729238D02*
X183528195Y-110157809D01*
X183528195Y-110157809D02*
X182861529Y-108729238D01*
X182861529Y-108729238D02*
X182861529Y-110729238D01*
X181052005Y-110729238D02*
X181052005Y-109681619D01*
X181052005Y-109681619D02*
X181147243Y-109491142D01*
X181147243Y-109491142D02*
X181337719Y-109395904D01*
X181337719Y-109395904D02*
X181718672Y-109395904D01*
X181718672Y-109395904D02*
X181909148Y-109491142D01*
X181052005Y-110634000D02*
X181242481Y-110729238D01*
X181242481Y-110729238D02*
X181718672Y-110729238D01*
X181718672Y-110729238D02*
X181909148Y-110634000D01*
X181909148Y-110634000D02*
X182004386Y-110443523D01*
X182004386Y-110443523D02*
X182004386Y-110253047D01*
X182004386Y-110253047D02*
X181909148Y-110062571D01*
X181909148Y-110062571D02*
X181718672Y-109967333D01*
X181718672Y-109967333D02*
X181242481Y-109967333D01*
X181242481Y-109967333D02*
X181052005Y-109872095D01*
X179242481Y-110729238D02*
X179242481Y-108729238D01*
X179242481Y-110634000D02*
X179432957Y-110729238D01*
X179432957Y-110729238D02*
X179813910Y-110729238D01*
X179813910Y-110729238D02*
X180004386Y-110634000D01*
X180004386Y-110634000D02*
X180099624Y-110538761D01*
X180099624Y-110538761D02*
X180194862Y-110348285D01*
X180194862Y-110348285D02*
X180194862Y-109776857D01*
X180194862Y-109776857D02*
X180099624Y-109586380D01*
X180099624Y-109586380D02*
X180004386Y-109491142D01*
X180004386Y-109491142D02*
X179813910Y-109395904D01*
X179813910Y-109395904D02*
X179432957Y-109395904D01*
X179432957Y-109395904D02*
X179242481Y-109491142D01*
X177528195Y-110634000D02*
X177718671Y-110729238D01*
X177718671Y-110729238D02*
X178099624Y-110729238D01*
X178099624Y-110729238D02*
X178290100Y-110634000D01*
X178290100Y-110634000D02*
X178385338Y-110443523D01*
X178385338Y-110443523D02*
X178385338Y-109681619D01*
X178385338Y-109681619D02*
X178290100Y-109491142D01*
X178290100Y-109491142D02*
X178099624Y-109395904D01*
X178099624Y-109395904D02*
X177718671Y-109395904D01*
X177718671Y-109395904D02*
X177528195Y-109491142D01*
X177528195Y-109491142D02*
X177432957Y-109681619D01*
X177432957Y-109681619D02*
X177432957Y-109872095D01*
X177432957Y-109872095D02*
X178385338Y-110062571D01*
X175052004Y-110729238D02*
X175052004Y-108729238D01*
X175052004Y-109491142D02*
X174861528Y-109395904D01*
X174861528Y-109395904D02*
X174480575Y-109395904D01*
X174480575Y-109395904D02*
X174290099Y-109491142D01*
X174290099Y-109491142D02*
X174194861Y-109586380D01*
X174194861Y-109586380D02*
X174099623Y-109776857D01*
X174099623Y-109776857D02*
X174099623Y-110348285D01*
X174099623Y-110348285D02*
X174194861Y-110538761D01*
X174194861Y-110538761D02*
X174290099Y-110634000D01*
X174290099Y-110634000D02*
X174480575Y-110729238D01*
X174480575Y-110729238D02*
X174861528Y-110729238D01*
X174861528Y-110729238D02*
X175052004Y-110634000D01*
X173432956Y-109395904D02*
X172956766Y-110729238D01*
X172480575Y-109395904D02*
X172956766Y-110729238D01*
X172956766Y-110729238D02*
X173147242Y-111205428D01*
X173147242Y-111205428D02*
X173242480Y-111300666D01*
X173242480Y-111300666D02*
X173432956Y-111395904D01*
X169242479Y-110729238D02*
X170194860Y-110729238D01*
X170194860Y-110729238D02*
X170194860Y-108729238D01*
X168575812Y-110729238D02*
X168575812Y-109395904D01*
X168575812Y-108729238D02*
X168671050Y-108824476D01*
X168671050Y-108824476D02*
X168575812Y-108919714D01*
X168575812Y-108919714D02*
X168480574Y-108824476D01*
X168480574Y-108824476D02*
X168575812Y-108729238D01*
X168575812Y-108729238D02*
X168575812Y-108919714D01*
X166766288Y-109395904D02*
X166766288Y-110729238D01*
X167623431Y-109395904D02*
X167623431Y-110443523D01*
X167623431Y-110443523D02*
X167528193Y-110634000D01*
X167528193Y-110634000D02*
X167337717Y-110729238D01*
X167337717Y-110729238D02*
X167052002Y-110729238D01*
X167052002Y-110729238D02*
X166861526Y-110634000D01*
X166861526Y-110634000D02*
X166766288Y-110538761D01*
X165813907Y-110729238D02*
X165813907Y-108729238D01*
X165813907Y-109491142D02*
X165623431Y-109395904D01*
X165623431Y-109395904D02*
X165242478Y-109395904D01*
X165242478Y-109395904D02*
X165052002Y-109491142D01*
X165052002Y-109491142D02*
X164956764Y-109586380D01*
X164956764Y-109586380D02*
X164861526Y-109776857D01*
X164861526Y-109776857D02*
X164861526Y-110348285D01*
X164861526Y-110348285D02*
X164956764Y-110538761D01*
X164956764Y-110538761D02*
X165052002Y-110634000D01*
X165052002Y-110634000D02*
X165242478Y-110729238D01*
X165242478Y-110729238D02*
X165623431Y-110729238D01*
X165623431Y-110729238D02*
X165813907Y-110634000D01*
X163718669Y-110729238D02*
X163909145Y-110634000D01*
X163909145Y-110634000D02*
X164004383Y-110538761D01*
X164004383Y-110538761D02*
X164099621Y-110348285D01*
X164099621Y-110348285D02*
X164099621Y-109776857D01*
X164099621Y-109776857D02*
X164004383Y-109586380D01*
X164004383Y-109586380D02*
X163909145Y-109491142D01*
X163909145Y-109491142D02*
X163718669Y-109395904D01*
X163718669Y-109395904D02*
X163432954Y-109395904D01*
X163432954Y-109395904D02*
X163242478Y-109491142D01*
X163242478Y-109491142D02*
X163147240Y-109586380D01*
X163147240Y-109586380D02*
X163052002Y-109776857D01*
X163052002Y-109776857D02*
X163052002Y-110348285D01*
X163052002Y-110348285D02*
X163147240Y-110538761D01*
X163147240Y-110538761D02*
X163242478Y-110634000D01*
X163242478Y-110634000D02*
X163432954Y-110729238D01*
X163432954Y-110729238D02*
X163718669Y-110729238D01*
X162194859Y-110729238D02*
X162194859Y-109395904D01*
X162194859Y-109586380D02*
X162099621Y-109491142D01*
X162099621Y-109491142D02*
X161909145Y-109395904D01*
X161909145Y-109395904D02*
X161623430Y-109395904D01*
X161623430Y-109395904D02*
X161432954Y-109491142D01*
X161432954Y-109491142D02*
X161337716Y-109681619D01*
X161337716Y-109681619D02*
X161337716Y-110729238D01*
X161337716Y-109681619D02*
X161242478Y-109491142D01*
X161242478Y-109491142D02*
X161052002Y-109395904D01*
X161052002Y-109395904D02*
X160766288Y-109395904D01*
X160766288Y-109395904D02*
X160575811Y-109491142D01*
X160575811Y-109491142D02*
X160480573Y-109681619D01*
X160480573Y-109681619D02*
X160480573Y-110729238D01*
X159528192Y-110729238D02*
X159528192Y-109395904D01*
X159528192Y-108729238D02*
X159623430Y-108824476D01*
X159623430Y-108824476D02*
X159528192Y-108919714D01*
X159528192Y-108919714D02*
X159432954Y-108824476D01*
X159432954Y-108824476D02*
X159528192Y-108729238D01*
X159528192Y-108729238D02*
X159528192Y-108919714D01*
X158575811Y-110729238D02*
X158575811Y-109395904D01*
X158575811Y-109776857D02*
X158480573Y-109586380D01*
X158480573Y-109586380D02*
X158385335Y-109491142D01*
X158385335Y-109491142D02*
X158194859Y-109395904D01*
X158194859Y-109395904D02*
X158004382Y-109395904D01*
X155909144Y-110634000D02*
X155623430Y-110729238D01*
X155623430Y-110729238D02*
X155147239Y-110729238D01*
X155147239Y-110729238D02*
X154956763Y-110634000D01*
X154956763Y-110634000D02*
X154861525Y-110538761D01*
X154861525Y-110538761D02*
X154766287Y-110348285D01*
X154766287Y-110348285D02*
X154766287Y-110157809D01*
X154766287Y-110157809D02*
X154861525Y-109967333D01*
X154861525Y-109967333D02*
X154956763Y-109872095D01*
X154956763Y-109872095D02*
X155147239Y-109776857D01*
X155147239Y-109776857D02*
X155528192Y-109681619D01*
X155528192Y-109681619D02*
X155718668Y-109586380D01*
X155718668Y-109586380D02*
X155813906Y-109491142D01*
X155813906Y-109491142D02*
X155909144Y-109300666D01*
X155909144Y-109300666D02*
X155909144Y-109110190D01*
X155909144Y-109110190D02*
X155813906Y-108919714D01*
X155813906Y-108919714D02*
X155718668Y-108824476D01*
X155718668Y-108824476D02*
X155528192Y-108729238D01*
X155528192Y-108729238D02*
X155052001Y-108729238D01*
X155052001Y-108729238D02*
X154766287Y-108824476D01*
X154194858Y-109395904D02*
X153432954Y-109395904D01*
X153909144Y-108729238D02*
X153909144Y-110443523D01*
X153909144Y-110443523D02*
X153813906Y-110634000D01*
X153813906Y-110634000D02*
X153623430Y-110729238D01*
X153623430Y-110729238D02*
X153432954Y-110729238D01*
X151909144Y-110729238D02*
X151909144Y-109681619D01*
X151909144Y-109681619D02*
X152004382Y-109491142D01*
X152004382Y-109491142D02*
X152194858Y-109395904D01*
X152194858Y-109395904D02*
X152575811Y-109395904D01*
X152575811Y-109395904D02*
X152766287Y-109491142D01*
X151909144Y-110634000D02*
X152099620Y-110729238D01*
X152099620Y-110729238D02*
X152575811Y-110729238D01*
X152575811Y-110729238D02*
X152766287Y-110634000D01*
X152766287Y-110634000D02*
X152861525Y-110443523D01*
X152861525Y-110443523D02*
X152861525Y-110253047D01*
X152861525Y-110253047D02*
X152766287Y-110062571D01*
X152766287Y-110062571D02*
X152575811Y-109967333D01*
X152575811Y-109967333D02*
X152099620Y-109967333D01*
X152099620Y-109967333D02*
X151909144Y-109872095D01*
X150956763Y-109395904D02*
X150956763Y-110729238D01*
X150956763Y-109586380D02*
X150861525Y-109491142D01*
X150861525Y-109491142D02*
X150671049Y-109395904D01*
X150671049Y-109395904D02*
X150385334Y-109395904D01*
X150385334Y-109395904D02*
X150194858Y-109491142D01*
X150194858Y-109491142D02*
X150099620Y-109681619D01*
X150099620Y-109681619D02*
X150099620Y-110729238D01*
X148385334Y-110634000D02*
X148575810Y-110729238D01*
X148575810Y-110729238D02*
X148956763Y-110729238D01*
X148956763Y-110729238D02*
X149147239Y-110634000D01*
X149147239Y-110634000D02*
X149242477Y-110443523D01*
X149242477Y-110443523D02*
X149242477Y-109681619D01*
X149242477Y-109681619D02*
X149147239Y-109491142D01*
X149147239Y-109491142D02*
X148956763Y-109395904D01*
X148956763Y-109395904D02*
X148575810Y-109395904D01*
X148575810Y-109395904D02*
X148385334Y-109491142D01*
X148385334Y-109491142D02*
X148290096Y-109681619D01*
X148290096Y-109681619D02*
X148290096Y-109872095D01*
X148290096Y-109872095D02*
X149242477Y-110062571D01*
X147623429Y-109395904D02*
X147147239Y-110729238D01*
X147147239Y-110729238D02*
X146671048Y-109395904D01*
D10*
D11*
X85968045Y-55453600D02*
X85539474Y-55596457D01*
X85539474Y-55596457D02*
X84825188Y-55596457D01*
X84825188Y-55596457D02*
X84539474Y-55453600D01*
X84539474Y-55453600D02*
X84396616Y-55310742D01*
X84396616Y-55310742D02*
X84253759Y-55025028D01*
X84253759Y-55025028D02*
X84253759Y-54739314D01*
X84253759Y-54739314D02*
X84396616Y-54453600D01*
X84396616Y-54453600D02*
X84539474Y-54310742D01*
X84539474Y-54310742D02*
X84825188Y-54167885D01*
X84825188Y-54167885D02*
X85396616Y-54025028D01*
X85396616Y-54025028D02*
X85682331Y-53882171D01*
X85682331Y-53882171D02*
X85825188Y-53739314D01*
X85825188Y-53739314D02*
X85968045Y-53453600D01*
X85968045Y-53453600D02*
X85968045Y-53167885D01*
X85968045Y-53167885D02*
X85825188Y-52882171D01*
X85825188Y-52882171D02*
X85682331Y-52739314D01*
X85682331Y-52739314D02*
X85396616Y-52596457D01*
X85396616Y-52596457D02*
X84682331Y-52596457D01*
X84682331Y-52596457D02*
X84253759Y-52739314D01*
X82968045Y-55596457D02*
X82968045Y-52596457D01*
X82968045Y-52596457D02*
X81968045Y-54739314D01*
X81968045Y-54739314D02*
X80968045Y-52596457D01*
X80968045Y-52596457D02*
X80968045Y-55596457D01*
X79682331Y-54739314D02*
X78253760Y-54739314D01*
X79968045Y-55596457D02*
X78968045Y-52596457D01*
X78968045Y-52596457D02*
X77968045Y-55596457D01*
X75539473Y-55596457D02*
X76968045Y-55596457D01*
X76968045Y-55596457D02*
X76968045Y-52596457D01*
X73110902Y-55596457D02*
X74539474Y-55596457D01*
X74539474Y-55596457D02*
X74539474Y-52596457D01*
X68825189Y-54025028D02*
X68396617Y-54167885D01*
X68396617Y-54167885D02*
X68253760Y-54310742D01*
X68253760Y-54310742D02*
X68110903Y-54596457D01*
X68110903Y-54596457D02*
X68110903Y-55025028D01*
X68110903Y-55025028D02*
X68253760Y-55310742D01*
X68253760Y-55310742D02*
X68396617Y-55453600D01*
X68396617Y-55453600D02*
X68682332Y-55596457D01*
X68682332Y-55596457D02*
X69825189Y-55596457D01*
X69825189Y-55596457D02*
X69825189Y-52596457D01*
X69825189Y-52596457D02*
X68825189Y-52596457D01*
X68825189Y-52596457D02*
X68539475Y-52739314D01*
X68539475Y-52739314D02*
X68396617Y-52882171D01*
X68396617Y-52882171D02*
X68253760Y-53167885D01*
X68253760Y-53167885D02*
X68253760Y-53453600D01*
X68253760Y-53453600D02*
X68396617Y-53739314D01*
X68396617Y-53739314D02*
X68539475Y-53882171D01*
X68539475Y-53882171D02*
X68825189Y-54025028D01*
X68825189Y-54025028D02*
X69825189Y-54025028D01*
X66253760Y-52596457D02*
X65682332Y-52596457D01*
X65682332Y-52596457D02*
X65396617Y-52739314D01*
X65396617Y-52739314D02*
X65110903Y-53025028D01*
X65110903Y-53025028D02*
X64968046Y-53596457D01*
X64968046Y-53596457D02*
X64968046Y-54596457D01*
X64968046Y-54596457D02*
X65110903Y-55167885D01*
X65110903Y-55167885D02*
X65396617Y-55453600D01*
X65396617Y-55453600D02*
X65682332Y-55596457D01*
X65682332Y-55596457D02*
X66253760Y-55596457D01*
X66253760Y-55596457D02*
X66539475Y-55453600D01*
X66539475Y-55453600D02*
X66825189Y-55167885D01*
X66825189Y-55167885D02*
X66968046Y-54596457D01*
X66968046Y-54596457D02*
X66968046Y-53596457D01*
X66968046Y-53596457D02*
X66825189Y-53025028D01*
X66825189Y-53025028D02*
X66539475Y-52739314D01*
X66539475Y-52739314D02*
X66253760Y-52596457D01*
X63825189Y-54739314D02*
X62396618Y-54739314D01*
X64110903Y-55596457D02*
X63110903Y-52596457D01*
X63110903Y-52596457D02*
X62110903Y-55596457D01*
X59396617Y-55596457D02*
X60396617Y-54167885D01*
X61110903Y-55596457D02*
X61110903Y-52596457D01*
X61110903Y-52596457D02*
X59968046Y-52596457D01*
X59968046Y-52596457D02*
X59682331Y-52739314D01*
X59682331Y-52739314D02*
X59539474Y-52882171D01*
X59539474Y-52882171D02*
X59396617Y-53167885D01*
X59396617Y-53167885D02*
X59396617Y-53596457D01*
X59396617Y-53596457D02*
X59539474Y-53882171D01*
X59539474Y-53882171D02*
X59682331Y-54025028D01*
X59682331Y-54025028D02*
X59968046Y-54167885D01*
X59968046Y-54167885D02*
X61110903Y-54167885D01*
X58110903Y-55596457D02*
X58110903Y-52596457D01*
X58110903Y-52596457D02*
X57396617Y-52596457D01*
X57396617Y-52596457D02*
X56968046Y-52739314D01*
X56968046Y-52739314D02*
X56682331Y-53025028D01*
X56682331Y-53025028D02*
X56539474Y-53310742D01*
X56539474Y-53310742D02*
X56396617Y-53882171D01*
X56396617Y-53882171D02*
X56396617Y-54310742D01*
X56396617Y-54310742D02*
X56539474Y-54882171D01*
X56539474Y-54882171D02*
X56682331Y-55167885D01*
X56682331Y-55167885D02*
X56968046Y-55453600D01*
X56968046Y-55453600D02*
X57396617Y-55596457D01*
X57396617Y-55596457D02*
X58110903Y-55596457D01*
D10*
D11*
X73825188Y-44525028D02*
X73396616Y-44667885D01*
X73396616Y-44667885D02*
X73253759Y-44810742D01*
X73253759Y-44810742D02*
X73110902Y-45096457D01*
X73110902Y-45096457D02*
X73110902Y-45525028D01*
X73110902Y-45525028D02*
X73253759Y-45810742D01*
X73253759Y-45810742D02*
X73396616Y-45953600D01*
X73396616Y-45953600D02*
X73682331Y-46096457D01*
X73682331Y-46096457D02*
X74825188Y-46096457D01*
X74825188Y-46096457D02*
X74825188Y-43096457D01*
X74825188Y-43096457D02*
X73825188Y-43096457D01*
X73825188Y-43096457D02*
X73539474Y-43239314D01*
X73539474Y-43239314D02*
X73396616Y-43382171D01*
X73396616Y-43382171D02*
X73253759Y-43667885D01*
X73253759Y-43667885D02*
X73253759Y-43953600D01*
X73253759Y-43953600D02*
X73396616Y-44239314D01*
X73396616Y-44239314D02*
X73539474Y-44382171D01*
X73539474Y-44382171D02*
X73825188Y-44525028D01*
X73825188Y-44525028D02*
X74825188Y-44525028D01*
X71253759Y-43096457D02*
X70682331Y-43096457D01*
X70682331Y-43096457D02*
X70396616Y-43239314D01*
X70396616Y-43239314D02*
X70110902Y-43525028D01*
X70110902Y-43525028D02*
X69968045Y-44096457D01*
X69968045Y-44096457D02*
X69968045Y-45096457D01*
X69968045Y-45096457D02*
X70110902Y-45667885D01*
X70110902Y-45667885D02*
X70396616Y-45953600D01*
X70396616Y-45953600D02*
X70682331Y-46096457D01*
X70682331Y-46096457D02*
X71253759Y-46096457D01*
X71253759Y-46096457D02*
X71539474Y-45953600D01*
X71539474Y-45953600D02*
X71825188Y-45667885D01*
X71825188Y-45667885D02*
X71968045Y-45096457D01*
X71968045Y-45096457D02*
X71968045Y-44096457D01*
X71968045Y-44096457D02*
X71825188Y-43525028D01*
X71825188Y-43525028D02*
X71539474Y-43239314D01*
X71539474Y-43239314D02*
X71253759Y-43096457D01*
X69110902Y-43096457D02*
X67396617Y-43096457D01*
X68253759Y-46096457D02*
X68253759Y-43096457D01*
%TA.AperFunction,EtchedComponent*%
%TO.C,G\u002A\u002A\u002A*%
G36*
X189963389Y-98355021D02*
G01*
X188316109Y-98355021D01*
X187905774Y-98354434D01*
X187465791Y-98350923D01*
X187108745Y-98342470D01*
X186821543Y-98327090D01*
X186591093Y-98302795D01*
X186404303Y-98267600D01*
X186248082Y-98219518D01*
X186109336Y-98156562D01*
X185974974Y-98076746D01*
X185831904Y-97978084D01*
X185579498Y-97797248D01*
X185579498Y-100400837D01*
X182882825Y-100400837D01*
X182249316Y-100400686D01*
X181712060Y-100399551D01*
X181261360Y-100396415D01*
X180887514Y-100390263D01*
X180580824Y-100380076D01*
X180331591Y-100364838D01*
X180130114Y-100343532D01*
X179966695Y-100315142D01*
X179831634Y-100278651D01*
X179715231Y-100233041D01*
X179607788Y-100177296D01*
X179499604Y-100110399D01*
X179380981Y-100031333D01*
X179243474Y-99927751D01*
X179045856Y-99744207D01*
X178896390Y-99564288D01*
X178722696Y-99306394D01*
X178468235Y-99551662D01*
X178172769Y-99791804D01*
X177813020Y-99979408D01*
X177387959Y-100102236D01*
X177050837Y-100170971D01*
X177022183Y-102477741D01*
X174299899Y-102462197D01*
X174077782Y-102460925D01*
X173505035Y-102457485D01*
X173025706Y-102454040D01*
X172630250Y-102450152D01*
X172309119Y-102445379D01*
X172052768Y-102439283D01*
X171851649Y-102431423D01*
X171696218Y-102421359D01*
X171576926Y-102408651D01*
X171484228Y-102392860D01*
X171408578Y-102373546D01*
X171340429Y-102350268D01*
X171270234Y-102322587D01*
X171237391Y-102308779D01*
X170936828Y-102137398D01*
X170643885Y-101899635D01*
X170390648Y-101625099D01*
X170209203Y-101343401D01*
X170208542Y-101342051D01*
X170152077Y-101217931D01*
X170104671Y-101089297D01*
X170065546Y-100945972D01*
X170033925Y-100777781D01*
X170009029Y-100574550D01*
X169990080Y-100326101D01*
X169976300Y-100022262D01*
X169966910Y-99652854D01*
X169961134Y-99207705D01*
X169958191Y-98676638D01*
X169957306Y-98049477D01*
X169957004Y-96302845D01*
X170538382Y-96302845D01*
X170553187Y-97036674D01*
X170567992Y-97770502D01*
X171653239Y-97784916D01*
X171910156Y-97789390D01*
X172271868Y-97800516D01*
X172546501Y-97815903D01*
X172727671Y-97835147D01*
X172808992Y-97857845D01*
X172837244Y-97891357D01*
X172875133Y-98018613D01*
X172865715Y-98162723D01*
X172808992Y-98267678D01*
X172772386Y-98281726D01*
X172630225Y-98302394D01*
X172392057Y-98319366D01*
X172064267Y-98332238D01*
X171653239Y-98340607D01*
X170567992Y-98355021D01*
X170567992Y-100746234D01*
X170716837Y-101049339D01*
X170730044Y-101075795D01*
X170899872Y-101344890D01*
X171117446Y-101558238D01*
X171412012Y-101745113D01*
X171435814Y-101757685D01*
X171489743Y-101783265D01*
X171550236Y-101804399D01*
X171627263Y-101821587D01*
X171730795Y-101835335D01*
X171870804Y-101846144D01*
X172057261Y-101854518D01*
X172300137Y-101860959D01*
X172609403Y-101865972D01*
X172995030Y-101870058D01*
X173466989Y-101873722D01*
X174035251Y-101877466D01*
X176439749Y-101892798D01*
X176439749Y-99562988D01*
X176957846Y-99540543D01*
X177231981Y-99522059D01*
X177484020Y-99480227D01*
X177687700Y-99405325D01*
X177874089Y-99285321D01*
X178074253Y-99108182D01*
X178155884Y-99026535D01*
X178263599Y-98901134D01*
X178347331Y-98768286D01*
X178410044Y-98613880D01*
X178454705Y-98423804D01*
X178484279Y-98183948D01*
X178501731Y-97880199D01*
X178510028Y-97498445D01*
X178512134Y-97024576D01*
X178512134Y-95724686D01*
X179867155Y-95724686D01*
X179983823Y-95724705D01*
X180374174Y-95725389D01*
X180674760Y-95727763D01*
X180898711Y-95732782D01*
X181059155Y-95741400D01*
X181169223Y-95754572D01*
X181242042Y-95773253D01*
X181290742Y-95798398D01*
X181328452Y-95830963D01*
X181410448Y-95939280D01*
X181421190Y-96067669D01*
X181328452Y-96202929D01*
X181320453Y-96210757D01*
X181276524Y-96245102D01*
X181217016Y-96270401D01*
X181126812Y-96288027D01*
X180990797Y-96299349D01*
X180793855Y-96305739D01*
X180520871Y-96308567D01*
X180156730Y-96309205D01*
X179091284Y-96309205D01*
X179123222Y-98841961D01*
X179283775Y-99101468D01*
X179362887Y-99216193D01*
X179584711Y-99456091D01*
X179839156Y-99646258D01*
X180094334Y-99760757D01*
X180187470Y-99773635D01*
X180384677Y-99785926D01*
X180675513Y-99796317D01*
X181053402Y-99804664D01*
X181511768Y-99810826D01*
X182044032Y-99814659D01*
X182643620Y-99816022D01*
X184994979Y-99816318D01*
X184994979Y-93705440D01*
X186365942Y-93705440D01*
X186756438Y-93706542D01*
X187133932Y-93710968D01*
X187419369Y-93719104D01*
X187620483Y-93731293D01*
X187745006Y-93747879D01*
X187800670Y-93769205D01*
X187822552Y-93797631D01*
X187860299Y-93926618D01*
X187850449Y-94071372D01*
X187793929Y-94176046D01*
X187757323Y-94190094D01*
X187615162Y-94210763D01*
X187376994Y-94227734D01*
X187049204Y-94240606D01*
X186638176Y-94248975D01*
X185552929Y-94263389D01*
X185538145Y-94994038D01*
X185523361Y-95724686D01*
X186610396Y-95724686D01*
X186964419Y-95725689D01*
X187278428Y-95730990D01*
X187509729Y-95743523D01*
X187670859Y-95766211D01*
X187774356Y-95801975D01*
X187832759Y-95853737D01*
X187858606Y-95924420D01*
X187864435Y-96016946D01*
X187860095Y-96099744D01*
X187837280Y-96172829D01*
X187783407Y-96226662D01*
X187685943Y-96264162D01*
X187532352Y-96288247D01*
X187310103Y-96301836D01*
X187006659Y-96307849D01*
X186609487Y-96309205D01*
X185521544Y-96309205D01*
X185556600Y-96508473D01*
X185643024Y-96817004D01*
X185830588Y-97163139D01*
X186095152Y-97448560D01*
X186424957Y-97657705D01*
X186426391Y-97658367D01*
X186508278Y-97692981D01*
X186595438Y-97719986D01*
X186702299Y-97740539D01*
X186843290Y-97755799D01*
X187032840Y-97766922D01*
X187285378Y-97775067D01*
X187615333Y-97781391D01*
X188037134Y-97787052D01*
X189405440Y-97803603D01*
X189405440Y-95657890D01*
X189405318Y-95314086D01*
X189403948Y-94784723D01*
X189399923Y-94345250D01*
X189391863Y-93985207D01*
X189378388Y-93694136D01*
X189358121Y-93461578D01*
X189329682Y-93277074D01*
X189291691Y-93130164D01*
X189242770Y-93010389D01*
X189181539Y-92907291D01*
X189106619Y-92810410D01*
X189016631Y-92709287D01*
X188916181Y-92611500D01*
X188718832Y-92456374D01*
X188528661Y-92342886D01*
X188262971Y-92218612D01*
X185885042Y-92218093D01*
X183507113Y-92217573D01*
X183507113Y-98328452D01*
X182100824Y-98328452D01*
X181900401Y-98328397D01*
X181520037Y-98327564D01*
X181228075Y-98325042D01*
X181012135Y-98319960D01*
X180859839Y-98311446D01*
X180758809Y-98298631D01*
X180696666Y-98280644D01*
X180661032Y-98256613D01*
X180639527Y-98225669D01*
X180612942Y-98169326D01*
X180591513Y-98013014D01*
X180668022Y-97880574D01*
X180684052Y-97867050D01*
X180738793Y-97841504D01*
X180829855Y-97822844D01*
X180971224Y-97810070D01*
X181176890Y-97802182D01*
X181460839Y-97798183D01*
X181837060Y-97797071D01*
X182922594Y-97797071D01*
X182922594Y-96637500D01*
X182920603Y-96208607D01*
X182912445Y-95854485D01*
X182895161Y-95575961D01*
X182865795Y-95357461D01*
X182821389Y-95183415D01*
X182758984Y-95038249D01*
X182675625Y-94906392D01*
X182568354Y-94772272D01*
X182492270Y-94692874D01*
X182302315Y-94533920D01*
X182106280Y-94407394D01*
X181833264Y-94263389D01*
X179428766Y-94247586D01*
X177024268Y-94231784D01*
X177024268Y-98219726D01*
X176894025Y-98305065D01*
X176887045Y-98309540D01*
X176726460Y-98361522D01*
X176585874Y-98318497D01*
X176489843Y-98187601D01*
X176479875Y-98124751D01*
X176468883Y-97962120D01*
X176459206Y-97715996D01*
X176451151Y-97398793D01*
X176445019Y-97022922D01*
X176441118Y-96600797D01*
X176439749Y-96144832D01*
X176439749Y-94233821D01*
X175709101Y-94248605D01*
X174978452Y-94263389D01*
X174951020Y-100400837D01*
X173600226Y-100400837D01*
X173189684Y-100400214D01*
X172836614Y-100396769D01*
X172567789Y-100388288D01*
X172371751Y-100372560D01*
X172237045Y-100347373D01*
X172152216Y-100310515D01*
X172105807Y-100259773D01*
X172086363Y-100192937D01*
X172082427Y-100107795D01*
X172084699Y-100058039D01*
X172106894Y-99977469D01*
X172162707Y-99916811D01*
X172264240Y-99873327D01*
X172423592Y-99844275D01*
X172652864Y-99826917D01*
X172964154Y-99818511D01*
X173369564Y-99816318D01*
X174420502Y-99816318D01*
X174420502Y-98710063D01*
X174418879Y-98346282D01*
X174410551Y-97972550D01*
X174392297Y-97676835D01*
X174360979Y-97443453D01*
X174313459Y-97256719D01*
X174246599Y-97100948D01*
X174157262Y-96960455D01*
X174042311Y-96819556D01*
X173983259Y-96752937D01*
X173868902Y-96631618D01*
X173759376Y-96536374D01*
X173640792Y-96463865D01*
X173499263Y-96410754D01*
X173320900Y-96373702D01*
X173091814Y-96349370D01*
X172798119Y-96334420D01*
X172425926Y-96325513D01*
X171961346Y-96319310D01*
X170538382Y-96302845D01*
X169957004Y-96302845D01*
X169956904Y-95724686D01*
X171599450Y-95724686D01*
X171965262Y-95725232D01*
X172424436Y-95728969D01*
X172799205Y-95737987D01*
X173102594Y-95754288D01*
X173347628Y-95779873D01*
X173547333Y-95816744D01*
X173714735Y-95866902D01*
X173862858Y-95932348D01*
X174004727Y-96015085D01*
X174153369Y-96117112D01*
X174420502Y-96309028D01*
X174420502Y-93648239D01*
X178153452Y-93663555D01*
X178288454Y-93664110D01*
X178990913Y-93667100D01*
X179596353Y-93670021D01*
X180112640Y-93673121D01*
X180547638Y-93676649D01*
X180909213Y-93680853D01*
X181205231Y-93685982D01*
X181443555Y-93692286D01*
X181632051Y-93700012D01*
X181778584Y-93709410D01*
X181891020Y-93720728D01*
X181977224Y-93734215D01*
X182045060Y-93750120D01*
X182102394Y-93768691D01*
X182157091Y-93790178D01*
X182247305Y-93830291D01*
X182472794Y-93947473D01*
X182675187Y-94071705D01*
X182922594Y-94241926D01*
X182922594Y-91629445D01*
X185699059Y-91644534D01*
X188475523Y-91659624D01*
X188774220Y-91806312D01*
X188896816Y-91870889D01*
X189282662Y-92145302D01*
X189587721Y-92485110D01*
X189806832Y-92883520D01*
X189934834Y-93333740D01*
X189939664Y-93366683D01*
X189955354Y-93556043D01*
X189967401Y-93849046D01*
X189975774Y-94243666D01*
X189980438Y-94737874D01*
X189981361Y-95329643D01*
X189978510Y-96016946D01*
X189966955Y-97803603D01*
X189963389Y-98355021D01*
G37*
%TD.AperFunction*%
%TD*%
D14*
%TO.P,U5,1,GND*%
%TO.N,GND*%
X145460000Y-101000000D03*
D15*
%TO.P,U5,2,DQ*%
%TO.N,/water_temp*%
X148000000Y-101000000D03*
%TO.P,U5,3,V_{DD}*%
%TO.N,+3.3V*%
X150540000Y-101000000D03*
%TD*%
D16*
%TO.P,R1,1*%
%TO.N,+3V3*%
X66000000Y-73150000D03*
D17*
%TO.P,R1,2*%
%TO.N,/air_temp*%
X66000000Y-85850000D03*
%TD*%
D18*
%TO.P,J4,1,Pin_1*%
%TO.N,+3.3V*%
X101000000Y-62220000D03*
D19*
%TO.P,J4,2,Pin_2*%
%TO.N,GND*%
X101000000Y-67300000D03*
%TO.P,J4,3,Pin_3*%
%TO.N,/uv_ref_main*%
X101000000Y-72380000D03*
%TD*%
D14*
%TO.P,U2,1,OUT*%
%TO.N,/brightness_out*%
X82040000Y-100000000D03*
D15*
%TO.P,U2,2,GND*%
%TO.N,GND1*%
X79500000Y-100000000D03*
%TO.P,U2,3,VCC*%
%TO.N,+3V3*%
X76960000Y-100000000D03*
%TD*%
D18*
%TO.P,U8,1,VCC*%
%TO.N,+5V*%
X170000000Y-45000000D03*
D19*
%TO.P,U8,2,GND*%
%TO.N,GND*%
X165000000Y-45000000D03*
%TO.P,U8,3,In1*%
%TO.N,/relay_brightness_lamp*%
X160000000Y-45000000D03*
%TO.P,U8,4,In2*%
%TO.N,/relay_uv_lamp*%
X155000000Y-45000000D03*
%TO.P,U8,5,In3*%
%TO.N,unconnected-(U8-In3-Pad5)*%
X150000000Y-45000000D03*
%TO.P,U8,6,In4*%
%TO.N,/relay_heater*%
X145000000Y-45000000D03*
%TD*%
D14*
%TO.P,U7,1,+3.3V*%
%TO.N,+3.3V*%
X136750000Y-103500000D03*
D15*
%TO.P,U7,2,ESP_EN*%
%TO.N,unconnected-(U7-ESP_EN-Pad2)*%
X136750000Y-100960000D03*
%TO.P,U7,3,GPI36*%
%TO.N,/brightness_out_main*%
X136750000Y-98420000D03*
%TO.P,U7,4,GPI39*%
%TO.N,unconnected-(U7-GPI39-Pad4)*%
X136750000Y-95880000D03*
%TO.P,U7,5,GPI34*%
%TO.N,unconnected-(U7-GPI34-Pad5)*%
X136750000Y-93340000D03*
%TO.P,U7,6,GPI35*%
%TO.N,/water_level*%
X136750000Y-90800000D03*
%TO.P,U7,7,GPIO32*%
%TO.N,/uv_out_main*%
X136750000Y-88260000D03*
%TO.P,U7,8,GPIO33*%
%TO.N,/turbidity*%
X136750000Y-85720000D03*
%TO.P,U7,9,GPIO25*%
%TO.N,unconnected-(U7-GPIO25-Pad9)*%
X136750000Y-83180000D03*
%TO.P,U7,10,GPIO26*%
%TO.N,unconnected-(U7-GPIO26-Pad10)*%
X136750000Y-80640000D03*
%TO.P,U7,11,GPIO27*%
%TO.N,unconnected-(U7-GPIO27-Pad11)*%
X136750000Y-78100000D03*
%TO.P,U7,12,GPIO14*%
%TO.N,unconnected-(U7-GPIO14-Pad12)*%
X136750000Y-75560000D03*
%TO.P,U7,13,GPIO12*%
%TO.N,/uv_ref_main*%
X136750000Y-73020000D03*
%TO.P,U7,14,GND*%
%TO.N,unconnected-(U7-GND-Pad14)*%
X136750000Y-70480000D03*
%TO.P,U7,15,GPIO13*%
%TO.N,unconnected-(U7-GPIO13-Pad15)*%
X136750000Y-67940000D03*
%TO.P,U7,16,GPIO09*%
%TO.N,unconnected-(U7-GPIO09-Pad16)*%
X136750000Y-65400000D03*
%TO.P,U7,17,GPIO10*%
%TO.N,unconnected-(U7-GPIO10-Pad17)*%
X136750000Y-62860000D03*
%TO.P,U7,18,GPIO11*%
%TO.N,unconnected-(U7-GPIO11-Pad18)*%
X136750000Y-60320000D03*
%TO.P,U7,19,+5V*%
%TO.N,+5V*%
X136750000Y-57780000D03*
%TO.P,U7,20,GND*%
%TO.N,GND*%
X111350000Y-103500000D03*
%TO.P,U7,21,GPIO23*%
%TO.N,unconnected-(U7-GPIO23-Pad21)*%
X111350000Y-100960000D03*
%TO.P,U7,22,GPIO22*%
%TO.N,unconnected-(U7-GPIO22-Pad22)*%
X111350000Y-98420000D03*
%TO.P,U7,23,GPIO1*%
%TO.N,unconnected-(U7-GPIO1-Pad23)*%
X111350000Y-95880000D03*
%TO.P,U7,24,GPIO3*%
%TO.N,unconnected-(U7-GPIO3-Pad24)*%
X111350000Y-93340000D03*
%TO.P,U7,25,GPIO21*%
%TO.N,/water_level_power*%
X111350000Y-90800000D03*
%TO.P,U7,26,GND*%
%TO.N,unconnected-(U7-GND-Pad26)*%
X111350000Y-88260000D03*
%TO.P,U7,27,GPIO19*%
%TO.N,/relay_brightness_lamp*%
X111350000Y-85720000D03*
%TO.P,U7,28,GPIO18*%
%TO.N,/relay_uv_lamp*%
X111350000Y-83180000D03*
%TO.P,U7,29,GPIO05*%
%TO.N,/relay_heater*%
X111350000Y-80640000D03*
%TO.P,U7,30,GPIO17*%
%TO.N,/air_temp_main*%
X111350000Y-78100000D03*
%TO.P,U7,31,GPIO16*%
%TO.N,/water_temp*%
X111350000Y-75560000D03*
%TO.P,U7,32,GPIO04*%
%TO.N,unconnected-(U7-GPIO04-Pad32)*%
X111350000Y-73020000D03*
%TO.P,U7,33,GPIO00*%
%TO.N,unconnected-(U7-GPIO00-Pad33)*%
X111350000Y-70480000D03*
%TO.P,U7,34,GPIO02*%
%TO.N,unconnected-(U7-GPIO02-Pad34)*%
X111350000Y-67940000D03*
%TO.P,U7,35,GPIO15*%
%TO.N,unconnected-(U7-GPIO15-Pad35)*%
X111350000Y-65400000D03*
%TO.P,U7,36,GPIO08*%
%TO.N,unconnected-(U7-GPIO08-Pad36)*%
X111350000Y-62860000D03*
%TO.P,U7,37,GPIO07*%
%TO.N,unconnected-(U7-GPIO07-Pad37)*%
X111350000Y-60320000D03*
%TO.P,U7,38,GPIO06*%
%TO.N,unconnected-(U7-GPIO06-Pad38)*%
X111350000Y-57780000D03*
%TD*%
D18*
%TO.P,J6,1,Pin_1*%
%TO.N,GND*%
X101000000Y-77460000D03*
D19*
%TO.P,J6,2,Pin_2*%
X101000000Y-82540000D03*
%TD*%
D18*
%TO.P,J5,1,Pin_1*%
%TO.N,/uv_out_main*%
X101000000Y-87620000D03*
D19*
%TO.P,J5,2,Pin_2*%
%TO.N,/brightness_out_main*%
X101000000Y-92700000D03*
%TO.P,J5,3,Pin_3*%
%TO.N,/air_temp_main*%
X101000000Y-97780000D03*
%TD*%
D16*
%TO.P,R2,1*%
%TO.N,+3.3V*%
X143000000Y-95200000D03*
D17*
%TO.P,R2,2*%
%TO.N,/water_temp*%
X155700000Y-95200000D03*
%TD*%
D14*
%TO.P,U6,1,GND*%
%TO.N,GND*%
X165000000Y-101000000D03*
D15*
%TO.P,U6,2,VCC*%
%TO.N,/water_level_power*%
X162460000Y-101000000D03*
%TO.P,U6,3,OUT*%
%TO.N,/water_level*%
X159920000Y-101000000D03*
%TD*%
D14*
%TO.P,U3,1,GND*%
%TO.N,GND1*%
X59500000Y-83040000D03*
D15*
%TO.P,U3,2,DQ*%
%TO.N,/air_temp*%
X59500000Y-80500000D03*
%TO.P,U3,3,V_{DD}*%
%TO.N,+3V3*%
X59500000Y-77960000D03*
%TD*%
D14*
%TO.P,U4,1,GND*%
%TO.N,GND*%
X147000000Y-78040000D03*
D15*
%TO.P,U4,2,PWR*%
%TO.N,+3.3V*%
X147000000Y-75500000D03*
%TO.P,U4,3,OUT*%
%TO.N,/turbidity*%
X147000000Y-72960000D03*
%TD*%
D14*
%TO.P,U1,1,Vin*%
%TO.N,unconnected-(U1-Vin-Pad1)*%
X71080000Y-100000000D03*
D15*
%TO.P,U1,2,3.3V*%
%TO.N,+3V3*%
X68540000Y-100000000D03*
%TO.P,U1,3,GND*%
%TO.N,GND1*%
X66000000Y-100000000D03*
%TO.P,U1,4,OUT*%
%TO.N,/uv_out*%
X63460000Y-100000000D03*
%TO.P,U1,5,EN*%
%TO.N,+3V3*%
X60920000Y-100000000D03*
%TD*%
D18*
%TO.P,J1,1,Pin_1*%
%TO.N,+3V3*%
X64380000Y-63000000D03*
D19*
%TO.P,J1,2,Pin_2*%
%TO.N,GND1*%
X59300000Y-63000000D03*
%TO.P,J1,3,Pin_3*%
%TO.N,+3V3*%
X54220000Y-63000000D03*
%TD*%
D18*
%TO.P,J2,1,Pin_1*%
%TO.N,/uv_out*%
X89780000Y-63000000D03*
D19*
%TO.P,J2,2,Pin_2*%
%TO.N,/brightness_out*%
X84700000Y-63000000D03*
%TO.P,J2,3,Pin_3*%
%TO.N,/air_temp*%
X79620000Y-63000000D03*
%TD*%
D18*
%TO.P,J3,1,Pin_1*%
%TO.N,GND1*%
X74540000Y-63000000D03*
D19*
%TO.P,J3,2,Pin_2*%
X69460000Y-63000000D03*
%TD*%
D20*
%TO.N,/water_temp*%
X149400000Y-57800000D03*
X141750000Y-47000000D03*
%TO.N,/uv_out_main*%
X116000000Y-54750000D03*
%TO.N,/brightness_out_main*%
X114000000Y-52500000D03*
%TO.N,+5V*%
X133500000Y-45500000D03*
%TO.N,/relay_brightness_lamp*%
X121000000Y-52750000D03*
X121000000Y-85720000D03*
%TO.N,/relay_uv_lamp*%
X123250000Y-83180000D03*
X123250000Y-51054000D03*
%TO.N,/relay_heater*%
X125250000Y-49200000D03*
X125250000Y-80640000D03*
%TD*%
D21*
%TO.N,+3V3*%
X64363600Y-68863600D02*
X66000000Y-70500000D01*
X66000000Y-70500000D02*
X66000000Y-73150000D01*
X64363600Y-63000000D02*
X64363600Y-68863600D01*
D22*
%TO.N,/air_temp*%
X65000000Y-80500000D02*
X59500000Y-80500000D01*
X66000000Y-85850000D02*
X66000000Y-81500000D01*
X66000000Y-81500000D02*
X65000000Y-80500000D01*
D21*
%TO.N,GND*%
X103800000Y-67300000D02*
X101000000Y-67300000D01*
X105750000Y-75500000D02*
X105750000Y-69250000D01*
X101000000Y-77460000D02*
X103790000Y-77460000D01*
X109250000Y-103500000D02*
X107750000Y-102000000D01*
X107750000Y-102000000D02*
X107750000Y-84250000D01*
X105750000Y-69250000D02*
X103800000Y-67300000D01*
X106040000Y-82540000D02*
X101000000Y-82540000D01*
X107750000Y-84250000D02*
X106040000Y-82540000D01*
X111350000Y-103500000D02*
X109250000Y-103500000D01*
X103790000Y-77460000D02*
X105750000Y-75500000D01*
D22*
%TO.N,/water_temp*%
X118500000Y-73750000D02*
X116690000Y-75560000D01*
X118500000Y-49000000D02*
X118500000Y-73750000D01*
X149400000Y-95200000D02*
X149400000Y-57800000D01*
X120500000Y-47000000D02*
X118500000Y-49000000D01*
X148000000Y-96600000D02*
X148000000Y-101000000D01*
X116690000Y-75560000D02*
X111350000Y-75560000D01*
X149400000Y-95200000D02*
X148000000Y-96600000D01*
X149400000Y-95200000D02*
X155700000Y-95200000D01*
X141750000Y-47000000D02*
X120500000Y-47000000D01*
%TO.N,/brightness_out*%
X82040000Y-88460000D02*
X82040000Y-100000000D01*
X84683600Y-85816400D02*
X82040000Y-88460000D01*
X84683600Y-63000000D02*
X84683600Y-85816400D01*
D21*
%TO.N,GND1*%
X67500000Y-103500000D02*
X66000000Y-102000000D01*
X79500000Y-102250000D02*
X78250000Y-103500000D01*
X66000000Y-97500000D02*
X62500000Y-94000000D01*
X56500000Y-82500000D02*
X56500000Y-72430400D01*
X79500000Y-100000000D02*
X79500000Y-102250000D01*
X62500000Y-84500000D02*
X61040000Y-83040000D01*
X59283600Y-69646800D02*
X59283600Y-63000000D01*
X66000000Y-100000000D02*
X66000000Y-97500000D01*
X61040000Y-83040000D02*
X59500000Y-83040000D01*
X78250000Y-103500000D02*
X67500000Y-103500000D01*
X66000000Y-102000000D02*
X66000000Y-100000000D01*
X57040000Y-83040000D02*
X56500000Y-82500000D01*
X59500000Y-83040000D02*
X57040000Y-83040000D01*
X62500000Y-94000000D02*
X62500000Y-84500000D01*
X56500000Y-72430400D02*
X59283600Y-69646800D01*
D22*
%TO.N,/uv_out_main*%
X116000000Y-54750000D02*
X99750000Y-54750000D01*
X99750000Y-54750000D02*
X95885000Y-58615000D01*
X96764000Y-87620000D02*
X101000000Y-87620000D01*
X95885000Y-58615000D02*
X95885000Y-86741000D01*
X95885000Y-86741000D02*
X96764000Y-87620000D01*
%TO.N,/brightness_out_main*%
X114000000Y-52500000D02*
X99500000Y-52500000D01*
X95367000Y-92700000D02*
X101000000Y-92700000D01*
X94488000Y-57512000D02*
X94488000Y-91821000D01*
X99500000Y-52500000D02*
X94488000Y-57512000D01*
X94488000Y-91821000D02*
X95367000Y-92700000D01*
%TO.N,/water_level*%
X159920000Y-103330000D02*
X159920000Y-101000000D01*
X139400000Y-92150000D02*
X139400000Y-103400000D01*
X138050000Y-90800000D02*
X139400000Y-92150000D01*
X158450000Y-104800000D02*
X159920000Y-103330000D01*
X140800000Y-104800000D02*
X158450000Y-104800000D01*
X136700000Y-90800000D02*
X138050000Y-90800000D01*
X139400000Y-103400000D02*
X140800000Y-104800000D01*
%TO.N,/turbidity*%
X140530000Y-85720000D02*
X142000000Y-84250000D01*
X143415000Y-72960000D02*
X147000000Y-72960000D01*
X136700000Y-85720000D02*
X140530000Y-85720000D01*
X142000000Y-74375000D02*
X143415000Y-72960000D01*
X142000000Y-84250000D02*
X142000000Y-74375000D01*
D21*
%TO.N,+5V*%
X137000000Y-42000000D02*
X169000000Y-42000000D01*
X169000000Y-42000000D02*
X170000000Y-43000000D01*
X133500000Y-45500000D02*
X137000000Y-42000000D01*
X170000000Y-43000000D02*
X170000000Y-45000000D01*
%TO.N,/water_level_power*%
X159500000Y-55000000D02*
X131000000Y-55000000D01*
X128000000Y-87750000D02*
X124950000Y-90800000D01*
X131000000Y-55000000D02*
X128000000Y-58000000D01*
X124950000Y-90800000D02*
X111350000Y-90800000D01*
X162460000Y-101000000D02*
X162460000Y-57960000D01*
X162460000Y-57960000D02*
X159500000Y-55000000D01*
X128000000Y-58000000D02*
X128000000Y-87750000D01*
D22*
%TO.N,/relay_brightness_lamp*%
X157250000Y-52750000D02*
X160000000Y-50000000D01*
X111350000Y-85720000D02*
X121000000Y-85720000D01*
X160000000Y-50000000D02*
X160000000Y-45000000D01*
X121000000Y-52750000D02*
X157250000Y-52750000D01*
%TO.N,/relay_uv_lamp*%
X152946000Y-51054000D02*
X155000000Y-49000000D01*
X155000000Y-49000000D02*
X155000000Y-45000000D01*
X111350000Y-83180000D02*
X123250000Y-83180000D01*
X152946000Y-51054000D02*
X123250000Y-51054000D01*
%TO.N,/relay_heater*%
X143300000Y-49200000D02*
X125250000Y-49200000D01*
X145000000Y-47500000D02*
X143300000Y-49200000D01*
X111350000Y-80640000D02*
X125250000Y-80640000D01*
X145000000Y-45000000D02*
X145000000Y-47500000D01*
%TD*%
%TA.AperFunction,Conductor*%
%TO.N,GND*%
G36*
X104743039Y-75119685D02*
G01*
X104788794Y-75172489D01*
X104800000Y-75224000D01*
X104800000Y-84776000D01*
X104780315Y-84843039D01*
X104727511Y-84888794D01*
X104676000Y-84900000D01*
X97324000Y-84900000D01*
X97256961Y-84880315D01*
X97211206Y-84827511D01*
X97200000Y-84776000D01*
X97200000Y-82540004D01*
X99295233Y-82540004D01*
X99314273Y-82794079D01*
X99370968Y-83042477D01*
X99370973Y-83042494D01*
X99464058Y-83279671D01*
X99464057Y-83279671D01*
X99591457Y-83500332D01*
X99633452Y-83552993D01*
X99633453Y-83552993D01*
X100437226Y-82749219D01*
X100475901Y-82842588D01*
X100572075Y-82967925D01*
X100697412Y-83064099D01*
X100790779Y-83102772D01*
X99986813Y-83906737D01*
X100147623Y-84016375D01*
X100147624Y-84016376D01*
X100377176Y-84126921D01*
X100377174Y-84126921D01*
X100620652Y-84202024D01*
X100620658Y-84202026D01*
X100872595Y-84239999D01*
X100872604Y-84240000D01*
X101127396Y-84240000D01*
X101127404Y-84239999D01*
X101379341Y-84202026D01*
X101379347Y-84202024D01*
X101622824Y-84126921D01*
X101852381Y-84016373D01*
X102013185Y-83906737D01*
X101209220Y-83102772D01*
X101302588Y-83064099D01*
X101427925Y-82967925D01*
X101524099Y-82842589D01*
X101562773Y-82749220D01*
X102366545Y-83552993D01*
X102408545Y-83500327D01*
X102535941Y-83279671D01*
X102629026Y-83042494D01*
X102629031Y-83042477D01*
X102685726Y-82794079D01*
X102704767Y-82540004D01*
X102704767Y-82539995D01*
X102685726Y-82285920D01*
X102629031Y-82037522D01*
X102629026Y-82037505D01*
X102535941Y-81800328D01*
X102535942Y-81800328D01*
X102408544Y-81579671D01*
X102366546Y-81527006D01*
X101562772Y-82330779D01*
X101524099Y-82237412D01*
X101427925Y-82112075D01*
X101302588Y-82015901D01*
X101209220Y-81977227D01*
X102013185Y-81173261D01*
X101852377Y-81063624D01*
X101852376Y-81063623D01*
X101622823Y-80953078D01*
X101622825Y-80953078D01*
X101379347Y-80877975D01*
X101379341Y-80877973D01*
X101127404Y-80840000D01*
X100872595Y-80840000D01*
X100620658Y-80877973D01*
X100620652Y-80877975D01*
X100377175Y-80953078D01*
X100147624Y-81063623D01*
X100147616Y-81063628D01*
X99986813Y-81173261D01*
X100790779Y-81977227D01*
X100697412Y-82015901D01*
X100572075Y-82112075D01*
X100475901Y-82237411D01*
X100437227Y-82330779D01*
X99633453Y-81527006D01*
X99591455Y-81579670D01*
X99464058Y-81800328D01*
X99370973Y-82037505D01*
X99370968Y-82037522D01*
X99314273Y-82285920D01*
X99295233Y-82539995D01*
X99295233Y-82540004D01*
X97200000Y-82540004D01*
X97200000Y-78707844D01*
X99300000Y-78707844D01*
X99306401Y-78767372D01*
X99306403Y-78767379D01*
X99356645Y-78902086D01*
X99356649Y-78902093D01*
X99442809Y-79017187D01*
X99442812Y-79017190D01*
X99557906Y-79103350D01*
X99557913Y-79103354D01*
X99692620Y-79153596D01*
X99692627Y-79153598D01*
X99752155Y-79159999D01*
X99752172Y-79160000D01*
X100750000Y-79160000D01*
X100750000Y-78005881D01*
X100843369Y-78044556D01*
X100960677Y-78060000D01*
X101039323Y-78060000D01*
X101156631Y-78044556D01*
X101250000Y-78005881D01*
X101250000Y-79160000D01*
X102247828Y-79160000D01*
X102247844Y-79159999D01*
X102307372Y-79153598D01*
X102307379Y-79153596D01*
X102442086Y-79103354D01*
X102442093Y-79103350D01*
X102557187Y-79017190D01*
X102557190Y-79017187D01*
X102643350Y-78902093D01*
X102643354Y-78902086D01*
X102693596Y-78767379D01*
X102693598Y-78767372D01*
X102699999Y-78707844D01*
X102700000Y-78707827D01*
X102700000Y-77710000D01*
X101545882Y-77710000D01*
X101584556Y-77616631D01*
X101605177Y-77460000D01*
X101584556Y-77303369D01*
X101545882Y-77210000D01*
X102700000Y-77210000D01*
X102700000Y-76212172D01*
X102699999Y-76212155D01*
X102693598Y-76152627D01*
X102693596Y-76152620D01*
X102643354Y-76017913D01*
X102643350Y-76017906D01*
X102557190Y-75902812D01*
X102557187Y-75902809D01*
X102442093Y-75816649D01*
X102442086Y-75816645D01*
X102307379Y-75766403D01*
X102307372Y-75766401D01*
X102247844Y-75760000D01*
X101250000Y-75760000D01*
X101250000Y-76914118D01*
X101156631Y-76875444D01*
X101039323Y-76860000D01*
X100960677Y-76860000D01*
X100843369Y-76875444D01*
X100750000Y-76914118D01*
X100750000Y-75760000D01*
X99752155Y-75760000D01*
X99692627Y-75766401D01*
X99692620Y-75766403D01*
X99557913Y-75816645D01*
X99557906Y-75816649D01*
X99442812Y-75902809D01*
X99442809Y-75902812D01*
X99356649Y-76017906D01*
X99356645Y-76017913D01*
X99306403Y-76152620D01*
X99306401Y-76152627D01*
X99300000Y-76212155D01*
X99300000Y-77210000D01*
X100454118Y-77210000D01*
X100415444Y-77303369D01*
X100394823Y-77460000D01*
X100415444Y-77616631D01*
X100454118Y-77710000D01*
X99300000Y-77710000D01*
X99300000Y-78707844D01*
X97200000Y-78707844D01*
X97200000Y-75224000D01*
X97219685Y-75156961D01*
X97272489Y-75111206D01*
X97324000Y-75100000D01*
X104676000Y-75100000D01*
X104743039Y-75119685D01*
G37*
%TD.AperFunction*%
%TD*%
M02*
