%TF.GenerationSoftware,KiCad,Pcbnew,7.0.9*%
%TF.CreationDate,2024-02-04T14:24:30+02:00*%
%TF.ProjectId,Liubomir_Stanev_project,4c697562-6f6d-4697-925f-5374616e6576,rev?*%
%TF.SameCoordinates,Original*%
%TF.FileFunction,Other,User*%
%FSLAX46Y46*%
G04 Gerber Fmt 4.6, Leading zero omitted, Abs format (unit mm)*
G04 Created by KiCad (PCBNEW 7.0.9) date 2024-02-04 14:24:30*
%MOMM*%
%LPD*%
G01*
G04 APERTURE LIST*
%ADD10C,0.050000*%
G04 APERTURE END LIST*
D10*
%TO.C,U5*%
X144190000Y-99730000D02*
X151810000Y-99730000D01*
X144190000Y-102270000D02*
X144190000Y-99730000D01*
X144190000Y-102270000D02*
X151810000Y-102270000D01*
X151810000Y-102270000D02*
X151810000Y-99730000D01*
%TO.C,REF\u002A\u002A*%
X92550000Y-96000000D02*
G75*
G03*
X92550000Y-96000000I-3450000J0D01*
G01*
%TO.C,R1*%
X67850000Y-72100000D02*
X64150000Y-72100000D01*
X64150000Y-72100000D02*
X64150000Y-86900000D01*
X67850000Y-86900000D02*
X67850000Y-72100000D01*
X64150000Y-86900000D02*
X67850000Y-86900000D01*
%TO.C,REF\u002A\u002A*%
X101350000Y-109600000D02*
G75*
G03*
X101350000Y-109600000I-3450000J0D01*
G01*
X190450000Y-85500000D02*
G75*
G03*
X190450000Y-85500000I-3450000J0D01*
G01*
%TO.C,U2*%
X83310000Y-101270000D02*
X75690000Y-101270000D01*
X83310000Y-98730000D02*
X83310000Y-101270000D01*
X83310000Y-98730000D02*
X75690000Y-98730000D01*
X75690000Y-98730000D02*
X75690000Y-101270000D01*
%TO.C,REF\u002A\u002A*%
X194950000Y-45000000D02*
G75*
G03*
X194950000Y-45000000I-3450000J0D01*
G01*
X58550000Y-45000000D02*
G75*
G03*
X58550000Y-45000000I-3450000J0D01*
G01*
%TO.C,U7*%
X138250000Y-105030000D02*
X138250000Y-56270000D01*
X138250000Y-56270000D02*
X128370000Y-56270000D01*
X133300000Y-111200000D02*
X114800000Y-111200000D01*
X133300000Y-105030000D02*
X138250000Y-105030000D01*
X133300000Y-105030000D02*
X133300000Y-111200000D01*
X128370000Y-56270000D02*
X128370000Y-55400000D01*
X128370000Y-55400000D02*
X119740000Y-55400000D01*
X119740000Y-56270000D02*
X109850000Y-56270000D01*
X119740000Y-55400000D02*
X119740000Y-56270000D01*
X114800000Y-111200000D02*
X114800000Y-105030000D01*
X109850000Y-105030000D02*
X114800000Y-105030000D01*
X109850000Y-56270000D02*
X109850000Y-105030000D01*
%TO.C,REF\u002A\u002A*%
X101350000Y-45000000D02*
G75*
G03*
X101350000Y-45000000I-3450000J0D01*
G01*
X160450000Y-85500000D02*
G75*
G03*
X160450000Y-85500000I-3450000J0D01*
G01*
%TO.C,R2*%
X141950000Y-93350000D02*
X141950000Y-97050000D01*
X141950000Y-97050000D02*
X156750000Y-97050000D01*
X156750000Y-93350000D02*
X141950000Y-93350000D01*
X156750000Y-97050000D02*
X156750000Y-93350000D01*
%TO.C,U6*%
X166270000Y-102270000D02*
X158650000Y-102270000D01*
X166270000Y-99730000D02*
X166270000Y-102270000D01*
X166270000Y-99730000D02*
X158650000Y-99730000D01*
X158650000Y-99730000D02*
X158650000Y-102270000D01*
%TO.C,U3*%
X58230000Y-84310000D02*
X58230000Y-76690000D01*
X60770000Y-84310000D02*
X58230000Y-84310000D01*
X60770000Y-84310000D02*
X60770000Y-76690000D01*
X60770000Y-76690000D02*
X58230000Y-76690000D01*
%TO.C,REF\u002A\u002A*%
X160450000Y-65500000D02*
G75*
G03*
X160450000Y-65500000I-3450000J0D01*
G01*
X190450000Y-65500000D02*
G75*
G03*
X190450000Y-65500000I-3450000J0D01*
G01*
%TO.C,U4*%
X145730000Y-79310000D02*
X145730000Y-71690000D01*
X148270000Y-79310000D02*
X145730000Y-79310000D01*
X148270000Y-79310000D02*
X148270000Y-71690000D01*
X148270000Y-71690000D02*
X145730000Y-71690000D01*
%TO.C,REF\u002A\u002A*%
X194950000Y-109600000D02*
G75*
G03*
X194950000Y-109600000I-3450000J0D01*
G01*
X58550000Y-96000000D02*
G75*
G03*
X58550000Y-96000000I-3450000J0D01*
G01*
X92550000Y-45000000D02*
G75*
G03*
X92550000Y-45000000I-3450000J0D01*
G01*
%TD*%
M02*
